<svg width="698" height="495" viewBox="0 0 698 495" fill="none" xmlns="http://www.w3.org/2000/svg">
<rect x="14" width="684" height="476" fill="#C4C4C4"/>
<path opacity="0.9" d="M7.50586 31.1855L0.46875 28.748V27.5176L9 30.6816V31.6777L0.46875 34.8359V33.6113L7.50586 31.1855ZM9 22.8945C8.875 22.957 8.65234 23.0078 8.33203 23.0469C8.85547 23.5508 9.11719 24.1523 9.11719 24.8516C9.11719 25.4766 8.94141 25.9902 8.58984 26.3926C8.23438 26.791 7.78516 26.9902 7.24219 26.9902C6.58203 26.9902 6.07031 26.7402 5.70703 26.2402C5.33984 25.7363 5.15625 25.0293 5.15625 24.1191V23.0645H4.6582C4.2793 23.0645 3.97852 23.1777 3.75586 23.4043C3.5293 23.6309 3.41602 23.9648 3.41602 24.4062C3.41602 24.793 3.51367 25.1172 3.70898 25.3789C3.9043 25.6406 4.14063 25.7715 4.41797 25.7715V26.8613C4.10156 26.8613 3.79688 26.75 3.50391 26.5273C3.20703 26.3008 2.97266 25.9961 2.80078 25.6133C2.62891 25.2266 2.54297 24.8027 2.54297 24.3418C2.54297 23.6113 2.72656 23.0391 3.09375 22.625C3.45703 22.2109 3.95898 21.9961 4.59961 21.9805H7.51758C8.09961 21.9805 8.5625 21.9062 8.90625 21.7578H9V22.8945ZM8.17383 24.6934C8.17383 24.3535 8.08594 24.0312 7.91016 23.7266C7.73438 23.4219 7.50586 23.2012 7.22461 23.0645H5.92383V23.9141C5.92383 25.2422 6.3125 25.9062 7.08984 25.9062C7.42969 25.9062 7.69531 25.793 7.88672 25.5664C8.07812 25.3398 8.17383 25.0488 8.17383 24.6934ZM9 19.1035V20.1875H0V19.1035H9ZM8.37305 13.4492C8.86914 13.8711 9.11719 14.4902 9.11719 15.3066C9.11719 15.9824 8.92188 16.498 8.53125 16.8535C8.13672 17.2051 7.55469 17.3828 6.78516 17.3867H2.66016V16.3027H6.75586C7.7168 16.3027 8.19727 15.9121 8.19727 15.1309C8.19727 14.3027 7.88867 13.752 7.27148 13.4785H2.66016L2.66016 12.3945H9V13.4258L8.37305 13.4492ZM9.11719 8.11133C9.11719 8.9707 8.83594 9.66992 8.27344 10.209C7.70703 10.748 6.95117 11.0176 6.00586 11.0176H5.80664C5.17773 11.0176 4.61719 10.8984 4.125 10.6602C3.62891 10.418 3.24219 10.082 2.96484 9.65234C2.68359 9.21875 2.54297 8.75 2.54297 8.24609C2.54297 7.42188 2.81445 6.78125 3.35742 6.32422C3.90039 5.86719 4.67773 5.63867 5.68945 5.63867H6.14063V9.93359C6.76563 9.91797 7.27148 9.73633 7.6582 9.38867C8.04102 9.03711 8.23242 8.5918 8.23242 8.05273C8.23242 7.66992 8.1543 7.3457 7.99805 7.08008C7.8418 6.81445 7.63477 6.58203 7.37695 6.38281L7.89258 5.7207C8.70898 6.25195 9.11719 7.04883 9.11719 8.11133ZM3.43359 8.24609C3.43359 8.68359 3.59375 9.05078 3.91406 9.34766C4.23047 9.64453 4.67578 9.82812 5.25 9.89844V6.72266H5.16797C4.61719 6.75391 4.19141 6.90234 3.89063 7.16797C3.58594 7.43359 3.43359 7.79297 3.43359 8.24609Z" fill="black"/>
<path d="M645.266 489.293C645.16 490.195 644.826 490.893 644.264 491.385C643.705 491.873 642.961 492.117 642.031 492.117C641.023 492.117 640.215 491.756 639.605 491.033C639 490.311 638.697 489.344 638.697 488.133V487.312C638.697 486.52 638.838 485.822 639.119 485.221C639.404 484.619 639.807 484.158 640.326 483.838C640.846 483.514 641.447 483.352 642.131 483.352C643.037 483.352 643.764 483.605 644.311 484.113C644.857 484.617 645.176 485.316 645.266 486.211H644.135C644.037 485.531 643.824 485.039 643.496 484.734C643.172 484.43 642.717 484.277 642.131 484.277C641.412 484.277 640.848 484.543 640.438 485.074C640.031 485.605 639.828 486.361 639.828 487.342V488.168C639.828 489.094 640.021 489.83 640.408 490.377C640.795 490.924 641.336 491.197 642.031 491.197C642.656 491.197 643.135 491.057 643.467 490.775C643.803 490.49 644.025 489.996 644.135 489.293H645.266ZM646.35 488.771C646.35 488.15 646.471 487.592 646.713 487.096C646.959 486.6 647.299 486.217 647.732 485.947C648.17 485.678 648.668 485.543 649.227 485.543C650.09 485.543 650.787 485.842 651.318 486.439C651.854 487.037 652.121 487.832 652.121 488.824V488.9C652.121 489.518 652.002 490.072 651.764 490.564C651.529 491.053 651.191 491.434 650.75 491.707C650.312 491.98 649.809 492.117 649.238 492.117C648.379 492.117 647.682 491.818 647.146 491.221C646.615 490.623 646.35 489.832 646.35 488.848V488.771ZM647.439 488.9C647.439 489.604 647.602 490.168 647.926 490.594C648.254 491.02 648.691 491.232 649.238 491.232C649.789 491.232 650.227 491.018 650.551 490.588C650.875 490.154 651.037 489.549 651.037 488.771C651.037 488.076 650.871 487.514 650.539 487.084C650.211 486.65 649.773 486.434 649.227 486.434C648.691 486.434 648.26 486.646 647.932 487.072C647.604 487.498 647.439 488.107 647.439 488.9ZM654.5 485.66L654.529 486.363C654.994 485.816 655.621 485.543 656.41 485.543C657.297 485.543 657.9 485.883 658.221 486.562C658.432 486.258 658.705 486.012 659.041 485.824C659.381 485.637 659.781 485.543 660.242 485.543C661.633 485.543 662.34 486.279 662.363 487.752V492H661.279V487.816C661.279 487.363 661.176 487.025 660.969 486.803C660.762 486.576 660.414 486.463 659.926 486.463C659.523 486.463 659.189 486.584 658.924 486.826C658.658 487.064 658.504 487.387 658.461 487.793V492H657.371V487.846C657.371 486.924 656.92 486.463 656.018 486.463C655.307 486.463 654.82 486.766 654.559 487.371V492H653.475V485.66H654.5ZM669.359 488.9C669.359 489.865 669.139 490.643 668.697 491.232C668.256 491.822 667.658 492.117 666.904 492.117C666.135 492.117 665.529 491.873 665.088 491.385V494.438H664.004V485.66H664.994L665.047 486.363C665.488 485.816 666.102 485.543 666.887 485.543C667.648 485.543 668.25 485.83 668.691 486.404C669.137 486.979 669.359 487.777 669.359 488.801V488.9ZM668.275 488.777C668.275 488.062 668.123 487.498 667.818 487.084C667.514 486.67 667.096 486.463 666.564 486.463C665.908 486.463 665.416 486.754 665.088 487.336V490.365C665.412 490.943 665.908 491.232 666.576 491.232C667.096 491.232 667.508 491.027 667.812 490.617C668.121 490.203 668.275 489.59 668.275 488.777ZM671.92 492H670.836V483H671.92V492ZM676.291 492.117C675.432 492.117 674.732 491.836 674.193 491.273C673.654 490.707 673.385 489.951 673.385 489.006V488.807C673.385 488.178 673.504 487.617 673.742 487.125C673.984 486.629 674.32 486.242 674.75 485.965C675.184 485.684 675.652 485.543 676.156 485.543C676.98 485.543 677.621 485.814 678.078 486.357C678.535 486.9 678.764 487.678 678.764 488.689V489.141H674.469C674.484 489.766 674.666 490.271 675.014 490.658C675.365 491.041 675.811 491.232 676.35 491.232C676.732 491.232 677.057 491.154 677.322 490.998C677.588 490.842 677.82 490.635 678.02 490.377L678.682 490.893C678.15 491.709 677.354 492.117 676.291 492.117ZM676.156 486.434C675.719 486.434 675.352 486.594 675.055 486.914C674.758 487.23 674.574 487.676 674.504 488.25H677.68V488.168C677.648 487.617 677.5 487.191 677.234 486.891C676.969 486.586 676.609 486.434 676.156 486.434ZM682.15 487.975L683.557 485.66H684.822L682.748 488.795L684.887 492H683.633L682.168 489.627L680.703 492H679.443L681.582 488.795L679.508 485.66H680.762L682.15 487.975ZM687.154 492H686.07V485.66H687.154V492ZM685.982 483.979C685.982 483.803 686.035 483.654 686.141 483.533C686.25 483.412 686.41 483.352 686.621 483.352C686.832 483.352 686.992 483.412 687.102 483.533C687.211 483.654 687.266 483.803 687.266 483.979C687.266 484.154 687.211 484.301 687.102 484.418C686.992 484.535 686.832 484.594 686.621 484.594C686.41 484.594 686.25 484.535 686.141 484.418C686.035 484.301 685.982 484.154 685.982 483.979ZM690.365 484.125V485.66H691.549V486.498H690.365V490.43C690.365 490.684 690.418 490.875 690.523 491.004C690.629 491.129 690.809 491.191 691.062 491.191C691.188 491.191 691.359 491.168 691.578 491.121V492C691.293 492.078 691.016 492.117 690.746 492.117C690.262 492.117 689.896 491.971 689.65 491.678C689.404 491.385 689.281 490.969 689.281 490.43V486.498H688.127V485.66H689.281V484.125H690.365ZM694.895 490.412L696.371 485.66H697.531L694.982 492.979C694.588 494.033 693.961 494.561 693.102 494.561L692.896 494.543L692.492 494.467V493.588L692.785 493.611C693.152 493.611 693.438 493.537 693.641 493.389C693.848 493.24 694.018 492.969 694.15 492.574L694.391 491.93L692.129 485.66H693.312L694.895 490.412Z" fill="black"/>
<rect x="14" y="357" width="171" height="119" fill="#EFEFEF"/>
<rect x="185" y="238" width="171" height="119" fill="#EFEFEF"/>
<path d="M241.072 293V284.469H243.48C244.223 284.469 244.879 284.633 245.449 284.961C246.02 285.289 246.459 285.756 246.768 286.361C247.08 286.967 247.238 287.662 247.242 288.447V288.992C247.242 289.797 247.086 290.502 246.773 291.107C246.465 291.713 246.021 292.178 245.443 292.502C244.869 292.826 244.199 292.992 243.434 293H241.072ZM242.197 285.395V292.08H243.381C244.248 292.08 244.922 291.811 245.402 291.271C245.887 290.732 246.129 289.965 246.129 288.969V288.471C246.129 287.502 245.9 286.75 245.443 286.215C244.99 285.676 244.346 285.402 243.51 285.395H242.197ZM249.955 293H248.871V286.66H249.955V293ZM248.783 284.979C248.783 284.803 248.836 284.654 248.941 284.533C249.051 284.412 249.211 284.352 249.422 284.352C249.633 284.352 249.793 284.412 249.902 284.533C250.012 284.654 250.066 284.803 250.066 284.979C250.066 285.154 250.012 285.301 249.902 285.418C249.793 285.535 249.633 285.594 249.422 285.594C249.211 285.594 249.051 285.535 248.941 285.418C248.836 285.301 248.783 285.154 248.783 284.979ZM255.609 293C255.547 292.875 255.496 292.652 255.457 292.332C254.953 292.855 254.352 293.117 253.652 293.117C253.027 293.117 252.514 292.941 252.111 292.59C251.713 292.234 251.514 291.785 251.514 291.242C251.514 290.582 251.764 290.07 252.264 289.707C252.768 289.34 253.475 289.156 254.385 289.156H255.439V288.658C255.439 288.279 255.326 287.979 255.1 287.756C254.873 287.529 254.539 287.416 254.098 287.416C253.711 287.416 253.387 287.514 253.125 287.709C252.863 287.904 252.732 288.141 252.732 288.418H251.643C251.643 288.102 251.754 287.797 251.977 287.504C252.203 287.207 252.508 286.973 252.891 286.801C253.277 286.629 253.701 286.543 254.162 286.543C254.893 286.543 255.465 286.727 255.879 287.094C256.293 287.457 256.508 287.959 256.523 288.6V291.518C256.523 292.1 256.598 292.562 256.746 292.906V293H255.609ZM253.811 292.174C254.15 292.174 254.473 292.086 254.777 291.91C255.082 291.734 255.303 291.506 255.439 291.225V289.924H254.59C253.262 289.924 252.598 290.312 252.598 291.09C252.598 291.43 252.711 291.695 252.938 291.887C253.164 292.078 253.455 292.174 253.811 292.174ZM257.965 289.777C257.965 288.789 258.193 288.004 258.65 287.422C259.107 286.836 259.713 286.543 260.467 286.543C261.24 286.543 261.844 286.816 262.277 287.363L262.33 286.66H263.32V292.848C263.32 293.668 263.076 294.314 262.588 294.787C262.104 295.26 261.451 295.496 260.631 295.496C260.174 295.496 259.727 295.398 259.289 295.203C258.852 295.008 258.518 294.74 258.287 294.4L258.85 293.75C259.314 294.324 259.883 294.611 260.555 294.611C261.082 294.611 261.492 294.463 261.785 294.166C262.082 293.869 262.23 293.451 262.23 292.912V292.367C261.797 292.867 261.205 293.117 260.455 293.117C259.713 293.117 259.111 292.818 258.65 292.221C258.193 291.623 257.965 290.809 257.965 289.777ZM259.055 289.9C259.055 290.615 259.201 291.178 259.494 291.588C259.787 291.994 260.197 292.197 260.725 292.197C261.408 292.197 261.91 291.887 262.23 291.266V288.371C261.898 287.766 261.4 287.463 260.736 287.463C260.209 287.463 259.797 287.668 259.5 288.078C259.203 288.488 259.055 289.096 259.055 289.9ZM265.986 286.66L266.021 287.457C266.506 286.848 267.139 286.543 267.92 286.543C269.26 286.543 269.936 287.299 269.947 288.811V293H268.863V288.805C268.859 288.348 268.754 288.01 268.547 287.791C268.344 287.572 268.025 287.463 267.592 287.463C267.24 287.463 266.932 287.557 266.666 287.744C266.4 287.932 266.193 288.178 266.045 288.482V293H264.961V286.66H265.986ZM271.295 289.771C271.295 289.15 271.416 288.592 271.658 288.096C271.904 287.6 272.244 287.217 272.678 286.947C273.115 286.678 273.613 286.543 274.172 286.543C275.035 286.543 275.732 286.842 276.264 287.439C276.799 288.037 277.066 288.832 277.066 289.824V289.9C277.066 290.518 276.947 291.072 276.709 291.564C276.475 292.053 276.137 292.434 275.695 292.707C275.258 292.98 274.754 293.117 274.184 293.117C273.324 293.117 272.627 292.818 272.092 292.221C271.561 291.623 271.295 290.832 271.295 289.848V289.771ZM272.385 289.9C272.385 290.604 272.547 291.168 272.871 291.594C273.199 292.02 273.637 292.232 274.184 292.232C274.734 292.232 275.172 292.018 275.496 291.588C275.82 291.154 275.982 290.549 275.982 289.771C275.982 289.076 275.816 288.514 275.484 288.084C275.156 287.65 274.719 287.434 274.172 287.434C273.637 287.434 273.205 287.646 272.877 288.072C272.549 288.498 272.385 289.107 272.385 289.9ZM282.117 291.318C282.117 291.025 282.006 290.799 281.783 290.639C281.564 290.475 281.18 290.334 280.629 290.217C280.082 290.1 279.646 289.959 279.322 289.795C279.002 289.631 278.764 289.436 278.607 289.209C278.455 288.982 278.379 288.713 278.379 288.4C278.379 287.881 278.598 287.441 279.035 287.082C279.477 286.723 280.039 286.543 280.723 286.543C281.441 286.543 282.023 286.729 282.469 287.1C282.918 287.471 283.143 287.945 283.143 288.523H282.053C282.053 288.227 281.926 287.971 281.672 287.756C281.422 287.541 281.105 287.434 280.723 287.434C280.328 287.434 280.02 287.52 279.797 287.691C279.574 287.863 279.463 288.088 279.463 288.365C279.463 288.627 279.566 288.824 279.773 288.957C279.98 289.09 280.354 289.217 280.893 289.338C281.436 289.459 281.875 289.604 282.211 289.771C282.547 289.939 282.795 290.143 282.955 290.381C283.119 290.615 283.201 290.902 283.201 291.242C283.201 291.809 282.975 292.264 282.521 292.607C282.068 292.947 281.48 293.117 280.758 293.117C280.25 293.117 279.801 293.027 279.41 292.848C279.02 292.668 278.713 292.418 278.49 292.098C278.271 291.773 278.162 291.424 278.162 291.049H279.246C279.266 291.412 279.41 291.701 279.68 291.916C279.953 292.127 280.312 292.232 280.758 292.232C281.168 292.232 281.496 292.15 281.742 291.986C281.992 291.818 282.117 291.596 282.117 291.318ZM286.084 285.125V286.66H287.268V287.498H286.084V291.43C286.084 291.684 286.137 291.875 286.242 292.004C286.348 292.129 286.527 292.191 286.781 292.191C286.906 292.191 287.078 292.168 287.297 292.121V293C287.012 293.078 286.734 293.117 286.465 293.117C285.98 293.117 285.615 292.971 285.369 292.678C285.123 292.385 285 291.969 285 291.43V287.498H283.846V286.66H285V285.125H286.084ZM289.717 293H288.633V286.66H289.717V293ZM288.545 284.979C288.545 284.803 288.598 284.654 288.703 284.533C288.812 284.412 288.973 284.352 289.184 284.352C289.395 284.352 289.555 284.412 289.664 284.533C289.773 284.654 289.828 284.803 289.828 284.979C289.828 285.154 289.773 285.301 289.664 285.418C289.555 285.535 289.395 285.594 289.184 285.594C288.973 285.594 288.812 285.535 288.703 285.418C288.598 285.301 288.545 285.154 288.545 284.979ZM294 292.232C294.387 292.232 294.725 292.115 295.014 291.881C295.303 291.646 295.463 291.354 295.494 291.002H296.52C296.5 291.365 296.375 291.711 296.145 292.039C295.914 292.367 295.605 292.629 295.219 292.824C294.836 293.02 294.43 293.117 294 293.117C293.137 293.117 292.449 292.83 291.938 292.256C291.43 291.678 291.176 290.889 291.176 289.889V289.707C291.176 289.09 291.289 288.541 291.516 288.061C291.742 287.58 292.066 287.207 292.488 286.941C292.914 286.676 293.416 286.543 293.994 286.543C294.705 286.543 295.295 286.756 295.764 287.182C296.236 287.607 296.488 288.16 296.52 288.84H295.494C295.463 288.43 295.307 288.094 295.025 287.832C294.748 287.566 294.404 287.434 293.994 287.434C293.443 287.434 293.016 287.633 292.711 288.031C292.41 288.426 292.26 288.998 292.26 289.748V289.953C292.26 290.684 292.41 291.246 292.711 291.641C293.012 292.035 293.441 292.232 294 292.232Z" fill="black"/>
<rect x="356" y="119" width="171" height="119" fill="#EFEFEF"/>
<rect x="527" width="171" height="119" fill="#EFEFEF"/>
<path d="M70.8066 421V412.469H73.2148C73.957 412.469 74.6133 412.633 75.1836 412.961C75.7539 413.289 76.1934 413.756 76.502 414.361C76.8145 414.967 76.9727 415.662 76.9766 416.447V416.992C76.9766 417.797 76.8203 418.502 76.5078 419.107C76.1992 419.713 75.7559 420.178 75.1777 420.502C74.6035 420.826 73.9336 420.992 73.168 421H70.8066ZM71.9316 413.395V420.08H73.1152C73.9824 420.08 74.6562 419.811 75.1367 419.271C75.6211 418.732 75.8633 417.965 75.8633 416.969V416.471C75.8633 415.502 75.6348 414.75 75.1777 414.215C74.7246 413.676 74.0801 413.402 73.2441 413.395H71.9316ZM81.1426 421.117C80.2832 421.117 79.584 420.836 79.0449 420.273C78.5059 419.707 78.2363 418.951 78.2363 418.006V417.807C78.2363 417.178 78.3555 416.617 78.5938 416.125C78.8359 415.629 79.1719 415.242 79.6016 414.965C80.0352 414.684 80.5039 414.543 81.0078 414.543C81.832 414.543 82.4727 414.814 82.9297 415.357C83.3867 415.9 83.6152 416.678 83.6152 417.689V418.141H79.3203C79.3359 418.766 79.5176 419.271 79.8652 419.658C80.2168 420.041 80.6621 420.232 81.2012 420.232C81.584 420.232 81.9082 420.154 82.1738 419.998C82.4395 419.842 82.6719 419.635 82.8711 419.377L83.5332 419.893C83.002 420.709 82.2051 421.117 81.1426 421.117ZM81.0078 415.434C80.5703 415.434 80.2031 415.594 79.9062 415.914C79.6094 416.23 79.4258 416.676 79.3555 417.25H82.5312V417.168C82.5 416.617 82.3516 416.191 82.0859 415.891C81.8203 415.586 81.4609 415.434 81.0078 415.434ZM88.5664 419.318C88.5664 419.025 88.4551 418.799 88.2324 418.639C88.0137 418.475 87.6289 418.334 87.0781 418.217C86.5312 418.1 86.0957 417.959 85.7715 417.795C85.4512 417.631 85.2129 417.436 85.0566 417.209C84.9043 416.982 84.8281 416.713 84.8281 416.4C84.8281 415.881 85.0469 415.441 85.4844 415.082C85.9258 414.723 86.4883 414.543 87.1719 414.543C87.8906 414.543 88.4727 414.729 88.918 415.1C89.3672 415.471 89.5918 415.945 89.5918 416.523H88.502C88.502 416.227 88.375 415.971 88.1211 415.756C87.8711 415.541 87.5547 415.434 87.1719 415.434C86.7773 415.434 86.4688 415.52 86.2461 415.691C86.0234 415.863 85.9121 416.088 85.9121 416.365C85.9121 416.627 86.0156 416.824 86.2227 416.957C86.4297 417.09 86.8027 417.217 87.3418 417.338C87.8848 417.459 88.3242 417.604 88.6602 417.771C88.9961 417.939 89.2441 418.143 89.4043 418.381C89.5684 418.615 89.6504 418.902 89.6504 419.242C89.6504 419.809 89.4238 420.264 88.9707 420.607C88.5176 420.947 87.9297 421.117 87.207 421.117C86.6992 421.117 86.25 421.027 85.8594 420.848C85.4688 420.668 85.1621 420.418 84.9395 420.098C84.7207 419.773 84.6113 419.424 84.6113 419.049H85.6953C85.7148 419.412 85.8594 419.701 86.1289 419.916C86.4023 420.127 86.7617 420.232 87.207 420.232C87.6172 420.232 87.9453 420.15 88.1914 419.986C88.4414 419.818 88.5664 419.596 88.5664 419.318ZM93.6055 420.232C93.9922 420.232 94.3301 420.115 94.6191 419.881C94.9082 419.646 95.0684 419.354 95.0996 419.002H96.125C96.1055 419.365 95.9805 419.711 95.75 420.039C95.5195 420.367 95.2109 420.629 94.8242 420.824C94.4414 421.02 94.0352 421.117 93.6055 421.117C92.7422 421.117 92.0547 420.83 91.543 420.256C91.0352 419.678 90.7812 418.889 90.7812 417.889V417.707C90.7812 417.09 90.8945 416.541 91.1211 416.061C91.3477 415.58 91.6719 415.207 92.0938 414.941C92.5195 414.676 93.0215 414.543 93.5996 414.543C94.3105 414.543 94.9004 414.756 95.3691 415.182C95.8418 415.607 96.0938 416.16 96.125 416.84H95.0996C95.0684 416.43 94.9121 416.094 94.6309 415.832C94.3535 415.566 94.0098 415.434 93.5996 415.434C93.0488 415.434 92.6211 415.633 92.3164 416.031C92.0156 416.426 91.8652 416.998 91.8652 417.748V417.953C91.8652 418.684 92.0156 419.246 92.3164 419.641C92.6172 420.035 93.0469 420.232 93.6055 420.232ZM100.408 415.633C100.244 415.605 100.066 415.592 99.875 415.592C99.1641 415.592 98.6816 415.895 98.4277 416.5V421H97.3438V414.66H98.3984L98.416 415.393C98.7715 414.826 99.2754 414.543 99.9277 414.543C100.139 414.543 100.299 414.57 100.408 414.625V415.633ZM102.588 421H101.504V414.66H102.588V421ZM101.416 412.979C101.416 412.803 101.469 412.654 101.574 412.533C101.684 412.412 101.844 412.352 102.055 412.352C102.266 412.352 102.426 412.412 102.535 412.533C102.645 412.654 102.699 412.803 102.699 412.979C102.699 413.154 102.645 413.301 102.535 413.418C102.426 413.535 102.266 413.594 102.055 413.594C101.844 413.594 101.684 413.535 101.574 413.418C101.469 413.301 101.416 413.154 101.416 412.979ZM109.684 417.9C109.684 418.865 109.463 419.643 109.021 420.232C108.58 420.822 107.982 421.117 107.229 421.117C106.459 421.117 105.854 420.873 105.412 420.385V423.438H104.328V414.66H105.318L105.371 415.363C105.812 414.816 106.426 414.543 107.211 414.543C107.973 414.543 108.574 414.83 109.016 415.404C109.461 415.979 109.684 416.777 109.684 417.801V417.9ZM108.6 417.777C108.6 417.062 108.447 416.498 108.143 416.084C107.838 415.67 107.42 415.463 106.889 415.463C106.232 415.463 105.74 415.754 105.412 416.336V419.365C105.736 419.943 106.232 420.232 106.9 420.232C107.42 420.232 107.832 420.027 108.137 419.617C108.445 419.203 108.6 418.59 108.6 417.777ZM112.537 413.125V414.66H113.721V415.498H112.537V419.43C112.537 419.684 112.59 419.875 112.695 420.004C112.801 420.129 112.98 420.191 113.234 420.191C113.359 420.191 113.531 420.168 113.75 420.121V421C113.465 421.078 113.188 421.117 112.918 421.117C112.434 421.117 112.068 420.971 111.822 420.678C111.576 420.385 111.453 419.969 111.453 419.43V415.498H110.299V414.66H111.453V413.125H112.537ZM116.17 421H115.086V414.66H116.17V421ZM114.998 412.979C114.998 412.803 115.051 412.654 115.156 412.533C115.266 412.412 115.426 412.352 115.637 412.352C115.848 412.352 116.008 412.412 116.117 412.533C116.227 412.654 116.281 412.803 116.281 412.979C116.281 413.154 116.227 413.301 116.117 413.418C116.008 413.535 115.848 413.594 115.637 413.594C115.426 413.594 115.266 413.535 115.156 413.418C115.051 413.301 114.998 413.154 114.998 412.979ZM120.002 419.529L121.572 414.66H122.68L120.406 421H119.58L117.283 414.66H118.391L120.002 419.529ZM126.271 421.117C125.412 421.117 124.713 420.836 124.174 420.273C123.635 419.707 123.365 418.951 123.365 418.006V417.807C123.365 417.178 123.484 416.617 123.723 416.125C123.965 415.629 124.301 415.242 124.73 414.965C125.164 414.684 125.633 414.543 126.137 414.543C126.961 414.543 127.602 414.814 128.059 415.357C128.516 415.9 128.744 416.678 128.744 417.689V418.141H124.449C124.465 418.766 124.646 419.271 124.994 419.658C125.346 420.041 125.791 420.232 126.33 420.232C126.713 420.232 127.037 420.154 127.303 419.998C127.568 419.842 127.801 419.635 128 419.377L128.662 419.893C128.131 420.709 127.334 421.117 126.271 421.117ZM126.137 415.434C125.699 415.434 125.332 415.594 125.035 415.914C124.738 416.23 124.555 416.676 124.484 417.25H127.66V417.168C127.629 416.617 127.48 416.191 127.215 415.891C126.949 415.586 126.59 415.434 126.137 415.434Z" fill="black"/>
<path d="M417.219 179.66V183H416.094V174.469H419.24C420.174 174.469 420.904 174.707 421.432 175.184C421.963 175.66 422.229 176.291 422.229 177.076C422.229 177.904 421.969 178.543 421.449 178.992C420.934 179.438 420.193 179.66 419.229 179.66H417.219ZM417.219 178.74H419.24C419.842 178.74 420.303 178.6 420.623 178.318C420.943 178.033 421.104 177.623 421.104 177.088C421.104 176.58 420.943 176.174 420.623 175.869C420.303 175.564 419.863 175.406 419.305 175.395H417.219V178.74ZM426.559 177.633C426.395 177.605 426.217 177.592 426.025 177.592C425.314 177.592 424.832 177.895 424.578 178.5V183H423.494V176.66H424.549L424.566 177.393C424.922 176.826 425.426 176.543 426.078 176.543C426.289 176.543 426.449 176.57 426.559 176.625V177.633ZM430.074 183.117C429.215 183.117 428.516 182.836 427.977 182.273C427.438 181.707 427.168 180.951 427.168 180.006V179.807C427.168 179.178 427.287 178.617 427.525 178.125C427.768 177.629 428.104 177.242 428.533 176.965C428.967 176.684 429.436 176.543 429.939 176.543C430.764 176.543 431.404 176.814 431.861 177.357C432.318 177.9 432.547 178.678 432.547 179.689V180.141H428.252C428.268 180.766 428.449 181.271 428.797 181.658C429.148 182.041 429.594 182.232 430.133 182.232C430.516 182.232 430.84 182.154 431.105 181.998C431.371 181.842 431.604 181.635 431.803 181.377L432.465 181.893C431.934 182.709 431.137 183.117 430.074 183.117ZM429.939 177.434C429.502 177.434 429.135 177.594 428.838 177.914C428.541 178.23 428.357 178.676 428.287 179.25H431.463V179.168C431.432 178.617 431.283 178.191 431.018 177.891C430.752 177.586 430.393 177.434 429.939 177.434ZM433.543 179.777C433.543 178.805 433.773 178.023 434.234 177.434C434.695 176.84 435.299 176.543 436.045 176.543C436.787 176.543 437.375 176.797 437.809 177.305V174H438.893V183H437.896L437.844 182.32C437.41 182.852 436.807 183.117 436.033 183.117C435.299 183.117 434.699 182.816 434.234 182.215C433.773 181.613 433.543 180.828 433.543 179.859V179.777ZM434.627 179.9C434.627 180.619 434.775 181.182 435.072 181.588C435.369 181.994 435.779 182.197 436.303 182.197C436.99 182.197 437.492 181.889 437.809 181.271V178.359C437.484 177.762 436.986 177.463 436.314 177.463C435.783 177.463 435.369 177.668 435.072 178.078C434.775 178.488 434.627 179.096 434.627 179.9ZM441.758 183H440.674V176.66H441.758V183ZM440.586 174.979C440.586 174.803 440.639 174.654 440.744 174.533C440.854 174.412 441.014 174.352 441.225 174.352C441.436 174.352 441.596 174.412 441.705 174.533C441.814 174.654 441.869 174.803 441.869 174.979C441.869 175.154 441.814 175.301 441.705 175.418C441.596 175.535 441.436 175.594 441.225 175.594C441.014 175.594 440.854 175.535 440.744 175.418C440.639 175.301 440.586 175.154 440.586 174.979ZM446.041 182.232C446.428 182.232 446.766 182.115 447.055 181.881C447.344 181.646 447.504 181.354 447.535 181.002H448.561C448.541 181.365 448.416 181.711 448.186 182.039C447.955 182.367 447.646 182.629 447.26 182.824C446.877 183.02 446.471 183.117 446.041 183.117C445.178 183.117 444.49 182.83 443.979 182.256C443.471 181.678 443.217 180.889 443.217 179.889V179.707C443.217 179.09 443.33 178.541 443.557 178.061C443.783 177.58 444.107 177.207 444.529 176.941C444.955 176.676 445.457 176.543 446.035 176.543C446.746 176.543 447.336 176.756 447.805 177.182C448.277 177.607 448.529 178.16 448.561 178.84H447.535C447.504 178.43 447.348 178.094 447.066 177.832C446.789 177.566 446.445 177.434 446.035 177.434C445.484 177.434 445.057 177.633 444.752 178.031C444.451 178.426 444.301 178.998 444.301 179.748V179.953C444.301 180.684 444.451 181.246 444.752 181.641C445.053 182.035 445.482 182.232 446.041 182.232ZM451.25 175.125V176.66H452.434V177.498H451.25V181.43C451.25 181.684 451.303 181.875 451.408 182.004C451.514 182.129 451.693 182.191 451.947 182.191C452.072 182.191 452.244 182.168 452.463 182.121V183C452.178 183.078 451.9 183.117 451.631 183.117C451.146 183.117 450.781 182.971 450.535 182.678C450.289 182.385 450.166 181.969 450.166 181.43V177.498H449.012V176.66H450.166V175.125H451.25ZM454.883 183H453.799V176.66H454.883V183ZM453.711 174.979C453.711 174.803 453.764 174.654 453.869 174.533C453.979 174.412 454.139 174.352 454.35 174.352C454.561 174.352 454.721 174.412 454.83 174.533C454.939 174.654 454.994 174.803 454.994 174.979C454.994 175.154 454.939 175.301 454.83 175.418C454.721 175.535 454.561 175.594 454.35 175.594C454.139 175.594 453.979 175.535 453.869 175.418C453.764 175.301 453.711 175.154 453.711 174.979ZM458.715 181.529L460.285 176.66H461.393L459.119 183H458.293L455.996 176.66H457.104L458.715 181.529ZM464.984 183.117C464.125 183.117 463.426 182.836 462.887 182.273C462.348 181.707 462.078 180.951 462.078 180.006V179.807C462.078 179.178 462.197 178.617 462.436 178.125C462.678 177.629 463.014 177.242 463.443 176.965C463.877 176.684 464.346 176.543 464.85 176.543C465.674 176.543 466.314 176.814 466.771 177.357C467.229 177.9 467.457 178.678 467.457 179.689V180.141H463.162C463.178 180.766 463.359 181.271 463.707 181.658C464.059 182.041 464.504 182.232 465.043 182.232C465.426 182.232 465.75 182.154 466.016 181.998C466.281 181.842 466.514 181.635 466.713 181.377L467.375 181.893C466.844 182.709 466.047 183.117 464.984 183.117ZM464.85 177.434C464.412 177.434 464.045 177.594 463.748 177.914C463.451 178.23 463.268 178.676 463.197 179.25H466.373V179.168C466.342 178.617 466.193 178.191 465.928 177.891C465.662 177.586 465.303 177.434 464.85 177.434Z" fill="black"/>
<path d="M581.109 60.6602V64H579.984V55.4688H583.131C584.064 55.4688 584.795 55.707 585.322 56.1836C585.854 56.6602 586.119 57.291 586.119 58.0762C586.119 58.9043 585.859 59.543 585.34 59.9922C584.824 60.4375 584.084 60.6602 583.119 60.6602H581.109ZM581.109 59.7402H583.131C583.732 59.7402 584.193 59.5996 584.514 59.3184C584.834 59.0332 584.994 58.623 584.994 58.0879C584.994 57.5801 584.834 57.1738 584.514 56.8691C584.193 56.5645 583.754 56.4062 583.195 56.3945H581.109V59.7402ZM590.449 58.6328C590.285 58.6055 590.107 58.5918 589.916 58.5918C589.205 58.5918 588.723 58.8945 588.469 59.5V64H587.385V57.6602H588.439L588.457 58.3926C588.812 57.8262 589.316 57.543 589.969 57.543C590.18 57.543 590.34 57.5703 590.449 57.625V58.6328ZM593.965 64.1172C593.105 64.1172 592.406 63.8359 591.867 63.2734C591.328 62.707 591.059 61.9512 591.059 61.0059V60.8066C591.059 60.1777 591.178 59.6172 591.416 59.125C591.658 58.6289 591.994 58.2422 592.424 57.9648C592.857 57.6836 593.326 57.543 593.83 57.543C594.654 57.543 595.295 57.8145 595.752 58.3574C596.209 58.9004 596.438 59.6777 596.438 60.6895V61.1406H592.143C592.158 61.7656 592.34 62.2715 592.688 62.6582C593.039 63.041 593.484 63.2324 594.023 63.2324C594.406 63.2324 594.73 63.1543 594.996 62.998C595.262 62.8418 595.494 62.6348 595.693 62.377L596.355 62.8926C595.824 63.709 595.027 64.1172 593.965 64.1172ZM593.83 58.4336C593.393 58.4336 593.025 58.5938 592.729 58.9141C592.432 59.2305 592.248 59.6758 592.178 60.25H595.354V60.168C595.322 59.6172 595.174 59.1914 594.908 58.8906C594.643 58.5859 594.283 58.4336 593.83 58.4336ZM601.389 62.3184C601.389 62.0254 601.277 61.7988 601.055 61.6387C600.836 61.4746 600.451 61.334 599.9 61.2168C599.354 61.0996 598.918 60.959 598.594 60.7949C598.273 60.6309 598.035 60.4355 597.879 60.209C597.727 59.9824 597.65 59.7129 597.65 59.4004C597.65 58.8809 597.869 58.4414 598.307 58.082C598.748 57.7227 599.311 57.543 599.994 57.543C600.713 57.543 601.295 57.7285 601.74 58.0996C602.189 58.4707 602.414 58.9453 602.414 59.5234H601.324C601.324 59.2266 601.197 58.9707 600.943 58.7559C600.693 58.541 600.377 58.4336 599.994 58.4336C599.6 58.4336 599.291 58.5195 599.068 58.6914C598.846 58.8633 598.734 59.0879 598.734 59.3652C598.734 59.627 598.838 59.8242 599.045 59.957C599.252 60.0898 599.625 60.2168 600.164 60.3379C600.707 60.459 601.146 60.6035 601.482 60.7715C601.818 60.9395 602.066 61.1426 602.227 61.3809C602.391 61.6152 602.473 61.9023 602.473 62.2422C602.473 62.8086 602.246 63.2637 601.793 63.6074C601.34 63.9473 600.752 64.1172 600.029 64.1172C599.521 64.1172 599.072 64.0273 598.682 63.8477C598.291 63.668 597.984 63.418 597.762 63.0977C597.543 62.7734 597.434 62.4238 597.434 62.0488H598.518C598.537 62.4121 598.682 62.7012 598.951 62.916C599.225 63.127 599.584 63.2324 600.029 63.2324C600.439 63.2324 600.768 63.1504 601.014 62.9863C601.264 62.8184 601.389 62.5957 601.389 62.3184ZM606.428 63.2324C606.814 63.2324 607.152 63.1152 607.441 62.8809C607.73 62.6465 607.891 62.3535 607.922 62.002H608.947C608.928 62.3652 608.803 62.7109 608.572 63.0391C608.342 63.3672 608.033 63.6289 607.646 63.8242C607.264 64.0195 606.857 64.1172 606.428 64.1172C605.564 64.1172 604.877 63.8301 604.365 63.2559C603.857 62.6777 603.604 61.8887 603.604 60.8887V60.707C603.604 60.0898 603.717 59.541 603.943 59.0605C604.17 58.5801 604.494 58.207 604.916 57.9414C605.342 57.6758 605.844 57.543 606.422 57.543C607.133 57.543 607.723 57.7559 608.191 58.1816C608.664 58.6074 608.916 59.1602 608.947 59.8398H607.922C607.891 59.4297 607.734 59.0938 607.453 58.832C607.176 58.5664 606.832 58.4336 606.422 58.4336C605.871 58.4336 605.443 58.6328 605.139 59.0312C604.838 59.4258 604.688 59.998 604.688 60.748V60.9531C604.688 61.6836 604.838 62.2461 605.139 62.6406C605.439 63.0352 605.869 63.2324 606.428 63.2324ZM613.23 58.6328C613.066 58.6055 612.889 58.5918 612.697 58.5918C611.986 58.5918 611.504 58.8945 611.25 59.5V64H610.166V57.6602H611.221L611.238 58.3926C611.594 57.8262 612.098 57.543 612.75 57.543C612.961 57.543 613.121 57.5703 613.23 57.625V58.6328ZM615.41 64H614.326V57.6602H615.41V64ZM614.238 55.9785C614.238 55.8027 614.291 55.6543 614.396 55.5332C614.506 55.4121 614.666 55.3516 614.877 55.3516C615.088 55.3516 615.248 55.4121 615.357 55.5332C615.467 55.6543 615.521 55.8027 615.521 55.9785C615.521 56.1543 615.467 56.3008 615.357 56.418C615.248 56.5352 615.088 56.5938 614.877 56.5938C614.666 56.5938 614.506 56.5352 614.396 56.418C614.291 56.3008 614.238 56.1543 614.238 55.9785ZM622.506 60.9004C622.506 61.8652 622.285 62.6426 621.844 63.2324C621.402 63.8223 620.805 64.1172 620.051 64.1172C619.281 64.1172 618.676 63.873 618.234 63.3848V66.4375H617.15V57.6602H618.141L618.193 58.3633C618.635 57.8164 619.248 57.543 620.033 57.543C620.795 57.543 621.396 57.8301 621.838 58.4043C622.283 58.9785 622.506 59.7773 622.506 60.8008V60.9004ZM621.422 60.7773C621.422 60.0625 621.27 59.498 620.965 59.084C620.66 58.6699 620.242 58.4629 619.711 58.4629C619.055 58.4629 618.562 58.7539 618.234 59.3359V62.3652C618.559 62.9434 619.055 63.2324 619.723 63.2324C620.242 63.2324 620.654 63.0273 620.959 62.6172C621.268 62.2031 621.422 61.5898 621.422 60.7773ZM625.359 56.125V57.6602H626.543V58.498H625.359V62.4297C625.359 62.6836 625.412 62.875 625.518 63.0039C625.623 63.1289 625.803 63.1914 626.057 63.1914C626.182 63.1914 626.354 63.168 626.572 63.1211V64C626.287 64.0781 626.01 64.1172 625.74 64.1172C625.256 64.1172 624.891 63.9707 624.645 63.6777C624.398 63.3848 624.275 62.9688 624.275 62.4297V58.498H623.121V57.6602H624.275V56.125H625.359ZM628.992 64H627.908V57.6602H628.992V64ZM627.82 55.9785C627.82 55.8027 627.873 55.6543 627.979 55.5332C628.088 55.4121 628.248 55.3516 628.459 55.3516C628.67 55.3516 628.83 55.4121 628.939 55.5332C629.049 55.6543 629.104 55.8027 629.104 55.9785C629.104 56.1543 629.049 56.3008 628.939 56.418C628.83 56.5352 628.67 56.5938 628.459 56.5938C628.248 56.5938 628.088 56.5352 627.979 56.418C627.873 56.3008 627.82 56.1543 627.82 55.9785ZM632.824 62.5293L634.395 57.6602H635.502L633.229 64H632.402L630.105 57.6602H631.213L632.824 62.5293ZM639.094 64.1172C638.234 64.1172 637.535 63.8359 636.996 63.2734C636.457 62.707 636.188 61.9512 636.188 61.0059V60.8066C636.188 60.1777 636.307 59.6172 636.545 59.125C636.787 58.6289 637.123 58.2422 637.553 57.9648C637.986 57.6836 638.455 57.543 638.959 57.543C639.783 57.543 640.424 57.8145 640.881 58.3574C641.338 58.9004 641.566 59.6777 641.566 60.6895V61.1406H637.271C637.287 61.7656 637.469 62.2715 637.816 62.6582C638.168 63.041 638.613 63.2324 639.152 63.2324C639.535 63.2324 639.859 63.1543 640.125 62.998C640.391 62.8418 640.623 62.6348 640.822 62.377L641.484 62.8926C640.953 63.709 640.156 64.1172 639.094 64.1172ZM638.959 58.4336C638.521 58.4336 638.154 58.5938 637.857 58.9141C637.561 59.2305 637.377 59.6758 637.307 60.25H640.482V60.168C640.451 59.6172 640.303 59.1914 640.037 58.8906C639.771 58.5859 639.412 58.4336 638.959 58.4336Z" fill="black"/>
</svg>
