<svg width="638" height="109" viewBox="0 0 638 109" fill="none" xmlns="http://www.w3.org/2000/svg">
<path d="M50 106C32.66 106 14.26 101.22 14.26 92.34V25.66C14.26 16.78 32.66 12 50 12C67.34 12 85.76 16.78 85.76 25.66V92.34C85.76 101.22 67.34 106 50 106ZM50 16C30.32 16 18.26 21.62 18.26 25.66V92.34C18.26 96.34 30.26 102 50 102C69.74 102 81.76 96.38 81.76 92.34V25.66C81.76 21.62 69.68 16 50 16Z" fill="#232F3E"/>
<path d="M50 37.3C32.66 37.3 14.26 32.52 14.26 23.64H18.26C18.26 27.64 30.26 33.3 50 33.3C69.74 33.3 81.76 27.68 81.76 23.64H85.76C85.76 32.52 67.34 37.3 50 37.3Z" fill="#232F3E"/>
<path d="M50 106C32.66 106 14.26 101.22 14.26 92.34V25.66C14.26 16.78 32.66 12 50 12C67.34 12 85.76 16.78 85.76 25.66V92.34C85.76 101.22 67.34 106 50 106ZM50 16C30.32 16 18.26 21.62 18.26 25.66V92.34C18.26 96.34 30.26 102 50 102C69.74 102 81.76 96.38 81.76 92.34V25.66C81.76 21.62 69.68 16 50 16Z" fill="#232F3E"/>
<path d="M50 37.3C32.66 37.3 14.26 32.52 14.26 23.64H18.26C18.26 27.64 30.26 33.3 50 33.3C69.74 33.3 81.76 27.68 81.76 23.64H85.76C85.76 32.52 67.34 37.3 50 37.3Z" fill="#232F3E"/>
<path d="M124.262 59.523L204.26 58.9991" stroke="black" stroke-width="2"/>
<path d="M181.104 35.1502L205.26 58.9926L181.418 83.1492" stroke="black" stroke-width="2"/>
<path d="M50 106C32.66 106 14.26 101.22 14.26 92.34V25.66C14.26 16.78 32.66 12 50 12C67.34 12 85.76 16.78 85.76 25.66V92.34C85.76 101.22 67.34 106 50 106ZM50 16C30.32 16 18.26 21.62 18.26 25.66V92.34C18.26 96.34 30.26 102 50 102C69.74 102 81.76 96.38 81.76 92.34V25.66C81.76 21.62 69.68 16 50 16Z" fill="#232F3E"/>
<path d="M50 37.3C32.66 37.3 14.26 32.52 14.26 23.64H18.26C18.26 27.64 30.26 33.3 50 33.3C69.74 33.3 81.76 27.68 81.76 23.64H85.76C85.76 32.52 67.34 37.3 50 37.3Z" fill="#232F3E"/>
<path d="M50 106C32.66 106 14.26 101.22 14.26 92.34V25.66C14.26 16.78 32.66 12 50 12C67.34 12 85.76 16.78 85.76 25.66V92.34C85.76 101.22 67.34 106 50 106ZM50 16C30.32 16 18.26 21.62 18.26 25.66V92.34C18.26 96.34 30.26 102 50 102C69.74 102 81.76 96.38 81.76 92.34V25.66C81.76 21.62 69.68 16 50 16Z" fill="#232F3E"/>
<path d="M50 37.3C32.66 37.3 14.26 32.52 14.26 23.64H18.26C18.26 27.64 30.26 33.3 50 33.3C69.74 33.3 81.76 27.68 81.76 23.64H85.76C85.76 32.52 67.34 37.3 50 37.3Z" fill="#232F3E"/>
<rect x="244" y="14" width="160" height="80" fill="black"/>
<path d="M307.701 46.7812L311.354 57.0938L314.986 46.7812H318.834V61H315.895V57.1133L316.188 50.4043L312.35 61H310.338L306.51 50.4141L306.803 57.1133V61H303.873V46.7812H307.701ZM327.33 61C327.2 60.7461 327.105 60.4303 327.047 60.0527C326.363 60.8145 325.475 61.1953 324.381 61.1953C323.346 61.1953 322.486 60.8958 321.803 60.2969C321.126 59.6979 320.787 58.9427 320.787 58.0312C320.787 56.9115 321.201 56.0521 322.027 55.4531C322.861 54.8542 324.062 54.5514 325.631 54.5449H326.93V53.9395C326.93 53.4512 326.803 53.0605 326.549 52.7676C326.301 52.4746 325.908 52.3281 325.367 52.3281C324.892 52.3281 324.518 52.4421 324.244 52.6699C323.977 52.8978 323.844 53.2103 323.844 53.6074H321.021C321.021 52.9954 321.21 52.429 321.588 51.9082C321.965 51.3874 322.499 50.9805 323.189 50.6875C323.88 50.388 324.654 50.2383 325.514 50.2383C326.816 50.2383 327.848 50.5671 328.609 51.2246C329.378 51.8757 329.762 52.7936 329.762 53.9785V58.5586C329.768 59.5612 329.908 60.3197 330.182 60.834V61H327.33ZM324.996 59.0371C325.413 59.0371 325.797 58.946 326.148 58.7637C326.5 58.5749 326.76 58.3242 326.93 58.0117V56.1953H325.875C324.462 56.1953 323.71 56.6836 323.619 57.6602L323.609 57.8262C323.609 58.1777 323.733 58.4674 323.98 58.6953C324.228 58.9232 324.566 59.0371 324.996 59.0371ZM337.867 53.0801C337.483 53.028 337.145 53.002 336.852 53.002C335.784 53.002 335.084 53.3633 334.752 54.0859V61H331.93V50.4336H334.596L334.674 51.6934C335.24 50.7233 336.025 50.2383 337.027 50.2383C337.34 50.2383 337.633 50.2806 337.906 50.3652L337.867 53.0801ZM343.102 47.8359V50.4336H344.908V52.5039H343.102V57.7773C343.102 58.168 343.176 58.4479 343.326 58.6172C343.476 58.7865 343.762 58.8711 344.186 58.8711C344.498 58.8711 344.775 58.8483 345.016 58.8027V60.9414C344.462 61.1107 343.893 61.1953 343.307 61.1953C341.327 61.1953 340.318 60.196 340.279 58.1973V52.5039H338.736V50.4336H340.279V47.8359H343.102Z" fill="white"/>
<path d="M124.262 59.523L204.26 58.9991" stroke="black" stroke-width="2"/>
<path d="M181.104 35.1502L205.26 58.9926L181.418 83.1492" stroke="black" stroke-width="2"/>
<path d="M50 106C32.66 106 14.26 101.22 14.26 92.34V25.66C14.26 16.78 32.66 12 50 12C67.34 12 85.76 16.78 85.76 25.66V92.34C85.76 101.22 67.34 106 50 106ZM50 16C30.32 16 18.26 21.62 18.26 25.66V92.34C18.26 96.34 30.26 102 50 102C69.74 102 81.76 96.38 81.76 92.34V25.66C81.76 21.62 69.68 16 50 16Z" fill="#232F3E"/>
<path d="M50 37.3C32.66 37.3 14.26 32.52 14.26 23.64H18.26C18.26 27.64 30.26 33.3 50 33.3C69.74 33.3 81.76 27.68 81.76 23.64H85.76C85.76 32.52 67.34 37.3 50 37.3Z" fill="#232F3E"/>
<path d="M50 106C32.66 106 14.26 101.22 14.26 92.34V25.66C14.26 16.78 32.66 12 50 12C67.34 12 85.76 16.78 85.76 25.66V92.34C85.76 101.22 67.34 106 50 106ZM50 16C30.32 16 18.26 21.62 18.26 25.66V92.34C18.26 96.34 30.26 102 50 102C69.74 102 81.76 96.38 81.76 92.34V25.66C81.76 21.62 69.68 16 50 16Z" fill="#232F3E"/>
<path d="M50 37.3C32.66 37.3 14.26 32.52 14.26 23.64H18.26C18.26 27.64 30.26 33.3 50 33.3C69.74 33.3 81.76 27.68 81.76 23.64H85.76C85.76 32.52 67.34 37.3 50 37.3Z" fill="#232F3E"/>
<path d="M124.262 59.523L204.26 58.9991" stroke="black" stroke-width="2"/>
<path d="M181.104 35.1502L205.26 58.9926L181.418 83.1492" stroke="black" stroke-width="2"/>
<path d="M50 106C32.66 106 14.26 101.22 14.26 92.34V25.66C14.26 16.78 32.66 12 50 12C67.34 12 85.76 16.78 85.76 25.66V92.34C85.76 101.22 67.34 106 50 106ZM50 16C30.32 16 18.26 21.62 18.26 25.66V92.34C18.26 96.34 30.26 102 50 102C69.74 102 81.76 96.38 81.76 92.34V25.66C81.76 21.62 69.68 16 50 16Z" fill="#232F3E"/>
<path d="M50 37.3C32.66 37.3 14.26 32.52 14.26 23.64H18.26C18.26 27.64 30.26 33.3 50 33.3C69.74 33.3 81.76 27.68 81.76 23.64H85.76C85.76 32.52 67.34 37.3 50 37.3Z" fill="#232F3E"/>
<path d="M50 106C32.66 106 14.26 101.22 14.26 92.34V25.66C14.26 16.78 32.66 12 50 12C67.34 12 85.76 16.78 85.76 25.66V92.34C85.76 101.22 67.34 106 50 106ZM50 16C30.32 16 18.26 21.62 18.26 25.66V92.34C18.26 96.34 30.26 102 50 102C69.74 102 81.76 96.38 81.76 92.34V25.66C81.76 21.62 69.68 16 50 16Z" fill="#232F3E"/>
<path d="M50 37.3C32.66 37.3 14.26 32.52 14.26 23.64H18.26C18.26 27.64 30.26 33.3 50 33.3C69.74 33.3 81.76 27.68 81.76 23.64H85.76C85.76 32.52 67.34 37.3 50 37.3Z" fill="#232F3E"/>
<path d="M124.262 59.523L204.26 58.9991" stroke="black" stroke-width="2"/>
<path d="M181.104 35.1502L205.26 58.9926L181.418 83.1492" stroke="black" stroke-width="2"/>
<path d="M50 106C32.66 106 14.26 101.22 14.26 92.34V25.66C14.26 16.78 32.66 12 50 12C67.34 12 85.76 16.78 85.76 25.66V92.34C85.76 101.22 67.34 106 50 106ZM50 16C30.32 16 18.26 21.62 18.26 25.66V92.34C18.26 96.34 30.26 102 50 102C69.74 102 81.76 96.38 81.76 92.34V25.66C81.76 21.62 69.68 16 50 16Z" fill="#232F3E"/>
<path d="M50 37.3C32.66 37.3 14.26 32.52 14.26 23.64H18.26C18.26 27.64 30.26 33.3 50 33.3C69.74 33.3 81.76 27.68 81.76 23.64H85.76C85.76 32.52 67.34 37.3 50 37.3Z" fill="#232F3E"/>
<path d="M50 106C32.66 106 14.26 101.22 14.26 92.34V25.66C14.26 16.78 32.66 12 50 12C67.34 12 85.76 16.78 85.76 25.66V92.34C85.76 101.22 67.34 106 50 106ZM50 16C30.32 16 18.26 21.62 18.26 25.66V92.34C18.26 96.34 30.26 102 50 102C69.74 102 81.76 96.38 81.76 92.34V25.66C81.76 21.62 69.68 16 50 16Z" fill="#232F3E"/>
<path d="M50 37.3C32.66 37.3 14.26 32.52 14.26 23.64H18.26C18.26 27.64 30.26 33.3 50 33.3C69.74 33.3 81.76 27.68 81.76 23.64H85.76C85.76 32.52 67.34 37.3 50 37.3Z" fill="#232F3E"/>
<path d="M124.262 59.523L204.26 58.9991" stroke="black" stroke-width="2"/>
<path d="M181.104 35.1502L205.26 58.9926L181.418 83.1492" stroke="black" stroke-width="2"/>
<path d="M50 106C32.66 106 14.26 101.22 14.26 92.34V25.66C14.26 16.78 32.66 12 50 12C67.34 12 85.76 16.78 85.76 25.66V92.34C85.76 101.22 67.34 106 50 106ZM50 16C30.32 16 18.26 21.62 18.26 25.66V92.34C18.26 96.34 30.26 102 50 102C69.74 102 81.76 96.38 81.76 92.34V25.66C81.76 21.62 69.68 16 50 16Z" fill="#232F3E"/>
<path d="M50 37.3C32.66 37.3 14.26 32.52 14.26 23.64H18.26C18.26 27.64 30.26 33.3 50 33.3C69.74 33.3 81.76 27.68 81.76 23.64H85.76C85.76 32.52 67.34 37.3 50 37.3Z" fill="#232F3E"/>
<path d="M50 106C32.66 106 14.26 101.22 14.26 92.34V25.66C14.26 16.78 32.66 12 50 12C67.34 12 85.76 16.78 85.76 25.66V92.34C85.76 101.22 67.34 106 50 106ZM50 16C30.32 16 18.26 21.62 18.26 25.66V92.34C18.26 96.34 30.26 102 50 102C69.74 102 81.76 96.38 81.76 92.34V25.66C81.76 21.62 69.68 16 50 16Z" fill="#232F3E"/>
<path d="M50 37.3C32.66 37.3 14.26 32.52 14.26 23.64H18.26C18.26 27.64 30.26 33.3 50 33.3C69.74 33.3 81.76 27.68 81.76 23.64H85.76C85.76 32.52 67.34 37.3 50 37.3Z" fill="#232F3E"/>
<path d="M124.262 59.523L204.26 58.9991" stroke="black" stroke-width="2"/>
<path d="M181.104 35.1502L205.26 58.9926L181.418 83.1492" stroke="black" stroke-width="2"/>
<path d="M50 106C32.66 106 14.26 101.22 14.26 92.34V25.66C14.26 16.78 32.66 12 50 12C67.34 12 85.76 16.78 85.76 25.66V92.34C85.76 101.22 67.34 106 50 106ZM50 16C30.32 16 18.26 21.62 18.26 25.66V92.34C18.26 96.34 30.26 102 50 102C69.74 102 81.76 96.38 81.76 92.34V25.66C81.76 21.62 69.68 16 50 16Z" fill="#232F3E"/>
<path d="M50 37.3C32.66 37.3 14.26 32.52 14.26 23.64H18.26C18.26 27.64 30.26 33.3 50 33.3C69.74 33.3 81.76 27.68 81.76 23.64H85.76C85.76 32.52 67.34 37.3 50 37.3Z" fill="#232F3E"/>
<path d="M50 106C32.66 106 14.26 101.22 14.26 92.34V25.66C14.26 16.78 32.66 12 50 12C67.34 12 85.76 16.78 85.76 25.66V92.34C85.76 101.22 67.34 106 50 106ZM50 16C30.32 16 18.26 21.62 18.26 25.66V92.34C18.26 96.34 30.26 102 50 102C69.74 102 81.76 96.38 81.76 92.34V25.66C81.76 21.62 69.68 16 50 16Z" fill="#232F3E"/>
<path d="M50 37.3C32.66 37.3 14.26 32.52 14.26 23.64H18.26C18.26 27.64 30.26 33.3 50 33.3C69.74 33.3 81.76 27.68 81.76 23.64H85.76C85.76 32.52 67.34 37.3 50 37.3Z" fill="#232F3E"/>
<path d="M124.262 59.523L204.26 58.9991" stroke="black" stroke-width="2"/>
<path d="M181.104 35.1502L205.26 58.9926L181.418 83.1492" stroke="black" stroke-width="2"/>
<path d="M50 106C32.66 106 14.26 101.22 14.26 92.34V25.66C14.26 16.78 32.66 12 50 12C67.34 12 85.76 16.78 85.76 25.66V92.34C85.76 101.22 67.34 106 50 106ZM50 16C30.32 16 18.26 21.62 18.26 25.66V92.34C18.26 96.34 30.26 102 50 102C69.74 102 81.76 96.38 81.76 92.34V25.66C81.76 21.62 69.68 16 50 16Z" fill="#232F3E"/>
<path d="M50 37.3C32.66 37.3 14.26 32.52 14.26 23.64H18.26C18.26 27.64 30.26 33.3 50 33.3C69.74 33.3 81.76 27.68 81.76 23.64H85.76C85.76 32.52 67.34 37.3 50 37.3Z" fill="#232F3E"/>
<path d="M50 106C32.66 106 14.26 101.22 14.26 92.34V25.66C14.26 16.78 32.66 12 50 12C67.34 12 85.76 16.78 85.76 25.66V92.34C85.76 101.22 67.34 106 50 106ZM50 16C30.32 16 18.26 21.62 18.26 25.66V92.34C18.26 96.34 30.26 102 50 102C69.74 102 81.76 96.38 81.76 92.34V25.66C81.76 21.62 69.68 16 50 16Z" fill="#232F3E"/>
<path d="M50 37.3C32.66 37.3 14.26 32.52 14.26 23.64H18.26C18.26 27.64 30.26 33.3 50 33.3C69.74 33.3 81.76 27.68 81.76 23.64H85.76C85.76 32.52 67.34 37.3 50 37.3Z" fill="#232F3E"/>
<path d="M124.262 59.523L204.26 58.9991" stroke="black" stroke-width="2"/>
<path d="M181.104 35.1502L205.26 58.9926L181.418 83.1492" stroke="black" stroke-width="2"/>
<path d="M508.408 53.9979L428.412 54.8213" stroke="black" stroke-width="2"/>
<path d="M451.658 78.5833L427.412 54.8316L451.164 30.5859" stroke="black" stroke-width="2"/>
<path d="M567.38 52H543C542.47 52 541.961 51.7893 541.586 51.4142C541.211 51.0391 541 50.5304 541 50V47C540.994 41.6622 542.783 36.4775 546.081 32.2801C549.378 28.0828 553.992 25.117 559.18 23.86C559.668 23.7437 560.182 23.8151 560.62 24.06C562.136 24.8723 563.83 25.2974 565.55 25.2974C567.27 25.2974 568.964 24.8723 570.48 24.06C570.918 23.8151 571.432 23.7437 571.92 23.86C574.637 24.5242 577.217 25.6616 579.54 27.22L577.3 30.54C575.572 29.4032 573.675 28.5461 571.68 28C569.758 28.8849 567.666 29.3431 565.55 29.3431C563.434 29.3431 561.342 28.8849 559.42 28C555.273 29.1674 551.621 31.6568 549.018 35.0899C546.415 38.5229 545.004 42.7119 545 47.02V48H567.38V52Z" fill="#232F3E"/>
<path d="M565.52 29.26C562.04 29.26 558.703 27.8777 556.243 25.4172C553.782 22.9568 552.4 19.6196 552.4 16.14C552.4 12.6604 553.782 9.32323 556.243 6.86276C558.703 4.40228 562.04 3.02 565.52 3.02C568.445 2.99228 571.295 3.94438 573.616 5.72458C575.937 7.50478 577.596 10.0107 578.328 12.8429C579.059 15.6751 578.822 18.6708 577.653 21.3524C576.485 24.0341 574.452 26.2475 571.88 27.64V27.64C569.929 28.7028 567.742 29.2598 565.52 29.26V29.26ZM565.52 7.02C563.089 7.00935 560.752 7.9636 559.024 9.67337C557.295 11.3831 556.316 13.7088 556.3 16.14C556.297 17.7789 556.739 19.3879 557.577 20.7964C558.415 22.2049 559.618 23.3602 561.06 24.14C562.429 24.8839 563.962 25.2737 565.52 25.2737C567.078 25.2737 568.611 24.8839 569.98 24.14V24.14C571.769 23.1705 573.182 21.6293 573.992 19.7626C574.802 17.896 574.963 15.8116 574.45 13.8425C573.936 11.8735 572.778 10.1333 571.159 8.90023C569.54 7.66711 567.555 7.01215 565.52 7.04V7.02Z" fill="#232F3E"/>
<path d="M633 52H608.62V48H631V47C630.993 42.6919 629.579 38.5039 626.972 35.0739C624.365 31.6439 620.709 29.1599 616.56 28C614.64 28.8941 612.548 29.3574 610.43 29.3574C608.312 29.3574 606.22 28.8941 604.3 28C602.264 28.5603 600.337 29.4595 598.6 30.66L596.34 27.38C598.655 25.7498 601.252 24.5631 604 23.88C604.486 23.7687 604.996 23.8325 605.44 24.06C606.96 24.8827 608.662 25.3135 610.39 25.3135C612.119 25.3135 613.82 24.8827 615.34 24.06C615.775 23.8269 616.281 23.7628 616.76 23.88C621.951 25.1331 626.57 28.0973 629.871 32.295C633.173 36.4927 634.965 41.6795 634.96 47.02V50C634.96 50.5236 634.755 51.0263 634.389 51.4003C634.022 51.7742 633.524 51.9895 633 52Z" fill="#232F3E"/>
<path d="M610.4 29.26C607.18 29.2554 604.073 28.0759 601.661 25.9429C599.249 23.8099 597.699 20.87 597.3 17.675C596.902 14.4799 597.684 11.2494 599.498 8.58967C601.313 5.92993 604.036 4.02383 607.156 3.22908C610.276 2.43433 613.579 2.80558 616.445 4.27314C619.311 5.74071 621.542 8.20371 622.721 11.1999C623.9 14.1961 623.945 17.5195 622.847 20.5464C621.75 23.5733 619.585 26.0956 616.76 27.64C614.809 28.7028 612.622 29.2598 610.4 29.26ZM610.4 7.02C607.969 7.00936 605.633 7.96361 603.904 9.67338C602.176 11.3831 601.196 13.7088 601.18 16.14C601.178 17.7789 601.619 19.3879 602.457 20.7964C603.295 22.2049 604.498 23.3603 605.94 24.14C607.309 24.8839 608.842 25.2737 610.4 25.2737C611.958 25.2737 613.491 24.8839 614.86 24.14V24.14C616.66 23.1758 618.083 21.6342 618.901 19.7631C619.719 17.8921 619.884 15.8004 619.369 13.8244C618.854 11.8485 617.69 10.103 616.063 8.86885C614.436 7.63467 612.442 6.98348 610.4 7.02V7.02Z" fill="#232F3E"/>
<path d="M619.88 96.98H556C555.469 96.98 554.961 96.7693 554.586 96.3942C554.211 96.0191 554 95.5104 554 94.98V90.74C553.98 83.3646 556.443 76.1971 560.992 70.3922C565.542 64.5872 571.913 60.4828 579.08 58.74C579.565 58.6176 580.079 58.6818 580.52 58.92C582.797 60.1368 585.338 60.7733 587.92 60.7733C590.501 60.7733 593.043 60.1368 595.32 58.92C595.76 58.6818 596.274 58.6176 596.76 58.74C603.936 60.4718 610.318 64.5721 614.876 70.3785C619.434 76.1849 621.901 83.3583 621.88 90.74V94.98C621.88 95.5104 621.669 96.0191 621.294 96.3942C620.919 96.7693 620.41 96.98 619.88 96.98V96.98ZM558 92.98H617.88V90.74C617.878 84.3938 615.784 78.2251 611.923 73.1888C608.062 68.1524 602.648 64.5292 596.52 62.88C593.839 64.1777 590.899 64.8518 587.92 64.8518C584.941 64.8518 582.001 64.1777 579.32 62.88C573.199 64.5367 567.794 68.163 563.941 73.1987C560.087 78.2344 557.999 84.399 558 90.74V92.98Z" fill="#232F3E"/>
<path d="M588 64.78C584.974 64.7862 581.996 64.0295 579.34 62.58C575.831 60.6628 573.06 57.6317 571.465 53.965C569.869 50.2982 569.54 46.2047 570.53 42.3302C571.519 38.4558 573.77 35.0211 576.928 32.5682C580.086 30.1152 583.971 28.7837 587.97 28.7837C591.969 28.7837 595.854 30.1152 599.012 32.5682C602.17 35.0211 604.421 38.4558 605.41 42.3302C606.4 46.2047 606.071 50.2982 604.475 53.965C602.88 57.6317 600.109 60.6628 596.6 62.58V62.58C593.962 64.0198 591.005 64.7761 588 64.78V64.78ZM588 33.28C584.934 33.2447 581.944 34.2362 579.506 36.0966C577.068 37.9569 575.323 40.5793 574.548 43.5462C573.773 46.5131 574.013 49.654 575.229 52.4689C576.445 55.2839 578.568 57.611 581.26 59.08C583.323 60.1881 585.628 60.7681 587.97 60.7681C590.312 60.7681 592.617 60.1881 594.68 59.08C597.384 57.6247 599.521 55.3046 600.75 52.4908C601.979 49.6771 602.229 46.5324 601.459 43.5599C600.69 40.5875 598.945 37.9591 596.505 36.0954C594.065 34.2316 591.07 33.2403 588 33.28Z" fill="#232F3E"/>
</svg>
