<svg width="1095" height="334" viewBox="0 0 1095 334" fill="none" xmlns="http://www.w3.org/2000/svg">
<path d="M50 97C32.66 97 14.26 92.22 14.26 83.34V16.66C14.26 7.78 32.66 3 50 3C67.34 3 85.76 7.78 85.76 16.66V83.34C85.76 92.22 67.34 97 50 97ZM50 7C30.32 7 18.26 12.62 18.26 16.66V83.34C18.26 87.34 30.26 93 50 93C69.74 93 81.76 87.38 81.76 83.34V16.66C81.76 12.62 69.68 7 50 7Z" fill="#232F3E"/>
<path d="M50 28.3C32.66 28.3 14.26 23.52 14.26 14.64H18.26C18.26 18.64 30.26 24.3 50 24.3C69.74 24.3 81.76 18.68 81.76 14.64H85.76C85.76 23.52 67.34 28.3 50 28.3Z" fill="#232F3E"/>
<path d="M50 207C32.66 207 14.26 202.22 14.26 193.34V126.66C14.26 117.78 32.66 113 50 113C67.34 113 85.76 117.78 85.76 126.66V193.34C85.76 202.22 67.34 207 50 207ZM50 117C30.32 117 18.26 122.62 18.26 126.66V193.34C18.26 197.34 30.26 203 50 203C69.74 203 81.76 197.38 81.76 193.34V126.66C81.76 122.62 69.68 117 50 117Z" fill="#232F3E"/>
<path d="M50 138.3C32.66 138.3 14.26 133.52 14.26 124.64H18.26C18.26 128.64 30.26 134.3 50 134.3C69.74 134.3 81.76 128.68 81.76 124.64H85.76C85.76 133.52 67.34 138.3 50 138.3Z" fill="#232F3E"/>
<path d="M50 326C32.66 326 14.26 321.22 14.26 312.34V245.66C14.26 236.78 32.66 232 50 232C67.34 232 85.76 236.78 85.76 245.66V312.34C85.76 321.22 67.34 326 50 326ZM50 236C30.32 236 18.26 241.62 18.26 245.66V312.34C18.26 316.34 30.26 322 50 322C69.74 322 81.76 316.38 81.76 312.34V245.66C81.76 241.62 69.68 236 50 236Z" fill="#232F3E"/>
<path d="M50 257.3C32.66 257.3 14.26 252.52 14.26 243.64H18.26C18.26 247.64 30.26 253.3 50 253.3C69.74 253.3 81.76 247.68 81.76 243.64H85.76C85.76 252.52 67.34 257.3 50 257.3Z" fill="#232F3E"/>
<rect x="232" y="120" width="160" height="80" fill="black"/>
<path d="M294.627 163.27C294.627 162.716 294.432 162.293 294.041 162C293.65 161.701 292.947 161.388 291.932 161.062C290.916 160.73 290.112 160.405 289.52 160.086C287.905 159.214 287.098 158.038 287.098 156.561C287.098 155.792 287.312 155.109 287.742 154.51C288.178 153.904 288.8 153.432 289.607 153.094C290.421 152.755 291.333 152.586 292.342 152.586C293.357 152.586 294.262 152.771 295.057 153.143C295.851 153.507 296.466 154.025 296.902 154.695C297.345 155.366 297.566 156.128 297.566 156.98H294.637C294.637 156.329 294.432 155.825 294.021 155.467C293.611 155.102 293.035 154.92 292.293 154.92C291.577 154.92 291.02 155.073 290.623 155.379C290.226 155.678 290.027 156.076 290.027 156.57C290.027 157.033 290.258 157.42 290.721 157.732C291.189 158.045 291.876 158.338 292.781 158.611C294.448 159.113 295.662 159.734 296.424 160.477C297.186 161.219 297.566 162.143 297.566 163.25C297.566 164.48 297.101 165.447 296.17 166.15C295.239 166.847 293.986 167.195 292.41 167.195C291.316 167.195 290.32 166.997 289.422 166.6C288.523 166.196 287.837 165.646 287.361 164.949C286.893 164.253 286.658 163.445 286.658 162.527H289.598C289.598 164.096 290.535 164.881 292.41 164.881C293.107 164.881 293.65 164.741 294.041 164.461C294.432 164.174 294.627 163.777 294.627 163.27ZM302.752 153.836V156.434H304.559V158.504H302.752V163.777C302.752 164.168 302.827 164.448 302.977 164.617C303.126 164.786 303.413 164.871 303.836 164.871C304.148 164.871 304.425 164.848 304.666 164.803V166.941C304.113 167.111 303.543 167.195 302.957 167.195C300.978 167.195 299.969 166.196 299.93 164.197V158.504H298.387V156.434H299.93V153.836H302.752ZM312.254 167C312.124 166.746 312.029 166.43 311.971 166.053C311.287 166.814 310.398 167.195 309.305 167.195C308.27 167.195 307.41 166.896 306.727 166.297C306.049 165.698 305.711 164.943 305.711 164.031C305.711 162.911 306.124 162.052 306.951 161.453C307.785 160.854 308.986 160.551 310.555 160.545H311.854V159.939C311.854 159.451 311.727 159.061 311.473 158.768C311.225 158.475 310.831 158.328 310.291 158.328C309.816 158.328 309.441 158.442 309.168 158.67C308.901 158.898 308.768 159.21 308.768 159.607H305.945C305.945 158.995 306.134 158.429 306.512 157.908C306.889 157.387 307.423 156.98 308.113 156.688C308.803 156.388 309.578 156.238 310.438 156.238C311.74 156.238 312.771 156.567 313.533 157.225C314.301 157.876 314.686 158.794 314.686 159.979V164.559C314.692 165.561 314.832 166.32 315.105 166.834V167H312.254ZM309.92 165.037C310.337 165.037 310.721 164.946 311.072 164.764C311.424 164.575 311.684 164.324 311.854 164.012V162.195H310.799C309.386 162.195 308.634 162.684 308.543 163.66L308.533 163.826C308.533 164.178 308.657 164.467 308.904 164.695C309.152 164.923 309.49 165.037 309.92 165.037ZM316.443 161.639C316.443 160.018 316.827 158.712 317.596 157.723C318.37 156.733 319.412 156.238 320.721 156.238C321.88 156.238 322.781 156.635 323.426 157.43L323.543 156.434H326.102V166.648C326.102 167.573 325.89 168.377 325.467 169.061C325.05 169.744 324.461 170.265 323.699 170.623C322.938 170.981 322.046 171.16 321.023 171.16C320.249 171.16 319.493 171.004 318.758 170.691C318.022 170.385 317.465 169.988 317.088 169.5L318.338 167.781C319.041 168.569 319.894 168.963 320.896 168.963C321.645 168.963 322.228 168.761 322.645 168.357C323.061 167.96 323.27 167.394 323.27 166.658V166.092C322.618 166.827 321.762 167.195 320.701 167.195C319.432 167.195 318.403 166.701 317.615 165.711C316.834 164.715 316.443 163.396 316.443 161.756V161.639ZM319.266 161.844C319.266 162.801 319.458 163.553 319.842 164.1C320.226 164.64 320.753 164.91 321.424 164.91C322.283 164.91 322.898 164.588 323.27 163.943V159.5C322.892 158.855 322.283 158.533 321.443 158.533C320.766 158.533 320.232 158.81 319.842 159.363C319.458 159.917 319.266 160.743 319.266 161.844ZM333.143 167.195C331.593 167.195 330.33 166.72 329.354 165.77C328.383 164.819 327.898 163.553 327.898 161.971V161.697C327.898 160.636 328.104 159.689 328.514 158.855C328.924 158.016 329.503 157.371 330.252 156.922C331.007 156.466 331.867 156.238 332.83 156.238C334.275 156.238 335.411 156.694 336.238 157.605C337.072 158.517 337.488 159.809 337.488 161.482V162.635H330.76C330.851 163.325 331.124 163.878 331.58 164.295C332.042 164.712 332.625 164.92 333.328 164.92C334.415 164.92 335.265 164.526 335.877 163.738L337.264 165.291C336.84 165.89 336.268 166.359 335.545 166.697C334.822 167.029 334.021 167.195 333.143 167.195ZM332.82 158.523C332.26 158.523 331.805 158.712 331.453 159.09C331.108 159.467 330.887 160.008 330.789 160.711H334.715V160.486C334.702 159.861 334.533 159.38 334.207 159.041C333.882 158.696 333.419 158.523 332.82 158.523Z" fill="white"/>
<rect x="488" y="120" width="160" height="80" fill="black"/>
<path d="M559.27 162.264C559.159 163.794 558.592 164.998 557.57 165.877C556.555 166.756 555.214 167.195 553.547 167.195C551.724 167.195 550.288 166.583 549.24 165.359C548.199 164.129 547.678 162.443 547.678 160.301V159.432C547.678 158.064 547.919 156.86 548.4 155.818C548.882 154.777 549.569 153.979 550.461 153.426C551.359 152.866 552.401 152.586 553.586 152.586C555.227 152.586 556.548 153.025 557.551 153.904C558.553 154.783 559.133 156.017 559.289 157.605H556.359C556.288 156.688 556.031 156.023 555.588 155.613C555.152 155.197 554.484 154.988 553.586 154.988C552.609 154.988 551.877 155.34 551.389 156.043C550.907 156.74 550.66 157.824 550.646 159.295V160.369C550.646 161.906 550.878 163.029 551.34 163.738C551.809 164.448 552.544 164.803 553.547 164.803C554.452 164.803 555.126 164.598 555.568 164.188C556.018 163.771 556.275 163.13 556.34 162.264H559.27ZM560.568 161.619C560.568 160.571 560.77 159.637 561.174 158.816C561.577 157.996 562.157 157.361 562.912 156.912C563.674 156.463 564.556 156.238 565.559 156.238C566.984 156.238 568.146 156.674 569.045 157.547C569.95 158.419 570.454 159.604 570.559 161.102L570.578 161.824C570.578 163.445 570.126 164.747 569.221 165.73C568.316 166.707 567.102 167.195 565.578 167.195C564.055 167.195 562.837 166.707 561.926 165.73C561.021 164.754 560.568 163.426 560.568 161.746V161.619ZM563.391 161.824C563.391 162.827 563.579 163.595 563.957 164.129C564.335 164.656 564.875 164.92 565.578 164.92C566.262 164.92 566.796 164.66 567.18 164.139C567.564 163.611 567.756 162.771 567.756 161.619C567.756 160.636 567.564 159.874 567.18 159.334C566.796 158.794 566.255 158.523 565.559 158.523C564.868 158.523 564.335 158.794 563.957 159.334C563.579 159.868 563.391 160.698 563.391 161.824ZM578.254 159.08C577.87 159.028 577.531 159.002 577.238 159.002C576.171 159.002 575.471 159.363 575.139 160.086V167H572.316V156.434H574.982L575.061 157.693C575.627 156.723 576.411 156.238 577.414 156.238C577.727 156.238 578.02 156.281 578.293 156.365L578.254 159.08ZM584.289 167.195C582.74 167.195 581.477 166.72 580.5 165.77C579.53 164.819 579.045 163.553 579.045 161.971V161.697C579.045 160.636 579.25 159.689 579.66 158.855C580.07 158.016 580.65 157.371 581.398 156.922C582.154 156.466 583.013 156.238 583.977 156.238C585.422 156.238 586.558 156.694 587.385 157.605C588.218 158.517 588.635 159.809 588.635 161.482V162.635H581.906C581.997 163.325 582.271 163.878 582.727 164.295C583.189 164.712 583.771 164.92 584.475 164.92C585.562 164.92 586.411 164.526 587.023 163.738L588.41 165.291C587.987 165.89 587.414 166.359 586.691 166.697C585.969 167.029 585.168 167.195 584.289 167.195ZM583.967 158.523C583.407 158.523 582.951 158.712 582.6 159.09C582.255 159.467 582.033 160.008 581.936 160.711H585.861V160.486C585.848 159.861 585.679 159.38 585.354 159.041C585.028 158.696 584.566 158.523 583.967 158.523Z" fill="white"/>
<rect x="738" y="120" width="160" height="80" fill="black"/>
<path d="M801.701 152.781L805.354 163.094L808.986 152.781H812.834V167H809.895V163.113L810.188 156.404L806.35 167H804.338L800.51 156.414L800.803 163.113V167H797.873V152.781H801.701ZM821.33 167C821.2 166.746 821.105 166.43 821.047 166.053C820.363 166.814 819.475 167.195 818.381 167.195C817.346 167.195 816.486 166.896 815.803 166.297C815.126 165.698 814.787 164.943 814.787 164.031C814.787 162.911 815.201 162.052 816.027 161.453C816.861 160.854 818.062 160.551 819.631 160.545H820.93V159.939C820.93 159.451 820.803 159.061 820.549 158.768C820.301 158.475 819.908 158.328 819.367 158.328C818.892 158.328 818.518 158.442 818.244 158.67C817.977 158.898 817.844 159.21 817.844 159.607H815.021C815.021 158.995 815.21 158.429 815.588 157.908C815.965 157.387 816.499 156.98 817.189 156.688C817.88 156.388 818.654 156.238 819.514 156.238C820.816 156.238 821.848 156.567 822.609 157.225C823.378 157.876 823.762 158.794 823.762 159.979V164.559C823.768 165.561 823.908 166.32 824.182 166.834V167H821.33ZM818.996 165.037C819.413 165.037 819.797 164.946 820.148 164.764C820.5 164.575 820.76 164.324 820.93 164.012V162.195H819.875C818.462 162.195 817.71 162.684 817.619 163.66L817.609 163.826C817.609 164.178 817.733 164.467 817.98 164.695C818.228 164.923 818.566 165.037 818.996 165.037ZM831.867 159.08C831.483 159.028 831.145 159.002 830.852 159.002C829.784 159.002 829.084 159.363 828.752 160.086V167H825.93V156.434H828.596L828.674 157.693C829.24 156.723 830.025 156.238 831.027 156.238C831.34 156.238 831.633 156.281 831.906 156.365L831.867 159.08ZM837.102 153.836V156.434H838.908V158.504H837.102V163.777C837.102 164.168 837.176 164.448 837.326 164.617C837.476 164.786 837.762 164.871 838.186 164.871C838.498 164.871 838.775 164.848 839.016 164.803V166.941C838.462 167.111 837.893 167.195 837.307 167.195C835.327 167.195 834.318 166.196 834.279 164.197V158.504H832.736V156.434H834.279V153.836H837.102Z" fill="white"/>
<path d="M50 97C32.66 97 14.26 92.22 14.26 83.34V16.66C14.26 7.78 32.66 3 50 3C67.34 3 85.76 7.78 85.76 16.66V83.34C85.76 92.22 67.34 97 50 97ZM50 7C30.32 7 18.26 12.62 18.26 16.66V83.34C18.26 87.34 30.26 93 50 93C69.74 93 81.76 87.38 81.76 83.34V16.66C81.76 12.62 69.68 7 50 7Z" fill="#232F3E"/>
<path d="M50 28.3C32.66 28.3 14.26 23.52 14.26 14.64H18.26C18.26 18.64 30.26 24.3 50 24.3C69.74 24.3 81.76 18.68 81.76 14.64H85.76C85.76 23.52 67.34 28.3 50 28.3Z" fill="#232F3E"/>
<path d="M50 207C32.66 207 14.26 202.22 14.26 193.34V126.66C14.26 117.78 32.66 113 50 113C67.34 113 85.76 117.78 85.76 126.66V193.34C85.76 202.22 67.34 207 50 207ZM50 117C30.32 117 18.26 122.62 18.26 126.66V193.34C18.26 197.34 30.26 203 50 203C69.74 203 81.76 197.38 81.76 193.34V126.66C81.76 122.62 69.68 117 50 117Z" fill="#232F3E"/>
<path d="M50 138.3C32.66 138.3 14.26 133.52 14.26 124.64H18.26C18.26 128.64 30.26 134.3 50 134.3C69.74 134.3 81.76 128.68 81.76 124.64H85.76C85.76 133.52 67.34 138.3 50 138.3Z" fill="#232F3E"/>
<path d="M50 326C32.66 326 14.26 321.22 14.26 312.34V245.66C14.26 236.78 32.66 232 50 232C67.34 232 85.76 236.78 85.76 245.66V312.34C85.76 321.22 67.34 326 50 326ZM50 236C30.32 236 18.26 241.62 18.26 245.66V312.34C18.26 316.34 30.26 322 50 322C69.74 322 81.76 316.38 81.76 312.34V245.66C81.76 241.62 69.68 236 50 236Z" fill="#232F3E"/>
<path d="M50 257.3C32.66 257.3 14.26 252.52 14.26 243.64H18.26C18.26 247.64 30.26 253.3 50 253.3C69.74 253.3 81.76 247.68 81.76 243.64H85.76C85.76 252.52 67.34 257.3 50 257.3Z" fill="#232F3E"/>
<path d="M50 97C32.66 97 14.26 92.22 14.26 83.34V16.66C14.26 7.78 32.66 3 50 3C67.34 3 85.76 7.78 85.76 16.66V83.34C85.76 92.22 67.34 97 50 97ZM50 7C30.32 7 18.26 12.62 18.26 16.66V83.34C18.26 87.34 30.26 93 50 93C69.74 93 81.76 87.38 81.76 83.34V16.66C81.76 12.62 69.68 7 50 7Z" fill="#232F3E"/>
<path d="M50 28.3C32.66 28.3 14.26 23.52 14.26 14.64H18.26C18.26 18.64 30.26 24.3 50 24.3C69.74 24.3 81.76 18.68 81.76 14.64H85.76C85.76 23.52 67.34 28.3 50 28.3Z" fill="#232F3E"/>
<path d="M50 207C32.66 207 14.26 202.22 14.26 193.34V126.66C14.26 117.78 32.66 113 50 113C67.34 113 85.76 117.78 85.76 126.66V193.34C85.76 202.22 67.34 207 50 207ZM50 117C30.32 117 18.26 122.62 18.26 126.66V193.34C18.26 197.34 30.26 203 50 203C69.74 203 81.76 197.38 81.76 193.34V126.66C81.76 122.62 69.68 117 50 117Z" fill="#232F3E"/>
<path d="M50 138.3C32.66 138.3 14.26 133.52 14.26 124.64H18.26C18.26 128.64 30.26 134.3 50 134.3C69.74 134.3 81.76 128.68 81.76 124.64H85.76C85.76 133.52 67.34 138.3 50 138.3Z" fill="#232F3E"/>
<path d="M50 326C32.66 326 14.26 321.22 14.26 312.34V245.66C14.26 236.78 32.66 232 50 232C67.34 232 85.76 236.78 85.76 245.66V312.34C85.76 321.22 67.34 326 50 326ZM50 236C30.32 236 18.26 241.62 18.26 245.66V312.34C18.26 316.34 30.26 322 50 322C69.74 322 81.76 316.38 81.76 312.34V245.66C81.76 241.62 69.68 236 50 236Z" fill="#232F3E"/>
<path d="M50 257.3C32.66 257.3 14.26 252.52 14.26 243.64H18.26C18.26 247.64 30.26 253.3 50 253.3C69.74 253.3 81.76 247.68 81.76 243.64H85.76C85.76 252.52 67.34 257.3 50 257.3Z" fill="#232F3E"/>
<path d="M50 97C32.66 97 14.26 92.22 14.26 83.34V16.66C14.26 7.78 32.66 3 50 3C67.34 3 85.76 7.78 85.76 16.66V83.34C85.76 92.22 67.34 97 50 97ZM50 7C30.32 7 18.26 12.62 18.26 16.66V83.34C18.26 87.34 30.26 93 50 93C69.74 93 81.76 87.38 81.76 83.34V16.66C81.76 12.62 69.68 7 50 7Z" fill="#232F3E"/>
<path d="M50 28.3C32.66 28.3 14.26 23.52 14.26 14.64H18.26C18.26 18.64 30.26 24.3 50 24.3C69.74 24.3 81.76 18.68 81.76 14.64H85.76C85.76 23.52 67.34 28.3 50 28.3Z" fill="#232F3E"/>
<path d="M50 207C32.66 207 14.26 202.22 14.26 193.34V126.66C14.26 117.78 32.66 113 50 113C67.34 113 85.76 117.78 85.76 126.66V193.34C85.76 202.22 67.34 207 50 207ZM50 117C30.32 117 18.26 122.62 18.26 126.66V193.34C18.26 197.34 30.26 203 50 203C69.74 203 81.76 197.38 81.76 193.34V126.66C81.76 122.62 69.68 117 50 117Z" fill="#232F3E"/>
<path d="M50 138.3C32.66 138.3 14.26 133.52 14.26 124.64H18.26C18.26 128.64 30.26 134.3 50 134.3C69.74 134.3 81.76 128.68 81.76 124.64H85.76C85.76 133.52 67.34 138.3 50 138.3Z" fill="#232F3E"/>
<path d="M50 326C32.66 326 14.26 321.22 14.26 312.34V245.66C14.26 236.78 32.66 232 50 232C67.34 232 85.76 236.78 85.76 245.66V312.34C85.76 321.22 67.34 326 50 326ZM50 236C30.32 236 18.26 241.62 18.26 245.66V312.34C18.26 316.34 30.26 322 50 322C69.74 322 81.76 316.38 81.76 312.34V245.66C81.76 241.62 69.68 236 50 236Z" fill="#232F3E"/>
<path d="M50 257.3C32.66 257.3 14.26 252.52 14.26 243.64H18.26C18.26 247.64 30.26 253.3 50 253.3C69.74 253.3 81.76 247.68 81.76 243.64H85.76C85.76 252.52 67.34 257.3 50 257.3Z" fill="#232F3E"/>
<path d="M50 97C32.66 97 14.26 92.22 14.26 83.34V16.66C14.26 7.78 32.66 3 50 3C67.34 3 85.76 7.78 85.76 16.66V83.34C85.76 92.22 67.34 97 50 97ZM50 7C30.32 7 18.26 12.62 18.26 16.66V83.34C18.26 87.34 30.26 93 50 93C69.74 93 81.76 87.38 81.76 83.34V16.66C81.76 12.62 69.68 7 50 7Z" fill="#232F3E"/>
<path d="M50 28.3C32.66 28.3 14.26 23.52 14.26 14.64H18.26C18.26 18.64 30.26 24.3 50 24.3C69.74 24.3 81.76 18.68 81.76 14.64H85.76C85.76 23.52 67.34 28.3 50 28.3Z" fill="#232F3E"/>
<path d="M50 207C32.66 207 14.26 202.22 14.26 193.34V126.66C14.26 117.78 32.66 113 50 113C67.34 113 85.76 117.78 85.76 126.66V193.34C85.76 202.22 67.34 207 50 207ZM50 117C30.32 117 18.26 122.62 18.26 126.66V193.34C18.26 197.34 30.26 203 50 203C69.74 203 81.76 197.38 81.76 193.34V126.66C81.76 122.62 69.68 117 50 117Z" fill="#232F3E"/>
<path d="M50 138.3C32.66 138.3 14.26 133.52 14.26 124.64H18.26C18.26 128.64 30.26 134.3 50 134.3C69.74 134.3 81.76 128.68 81.76 124.64H85.76C85.76 133.52 67.34 138.3 50 138.3Z" fill="#232F3E"/>
<path d="M50 326C32.66 326 14.26 321.22 14.26 312.34V245.66C14.26 236.78 32.66 232 50 232C67.34 232 85.76 236.78 85.76 245.66V312.34C85.76 321.22 67.34 326 50 326ZM50 236C30.32 236 18.26 241.62 18.26 245.66V312.34C18.26 316.34 30.26 322 50 322C69.74 322 81.76 316.38 81.76 312.34V245.66C81.76 241.62 69.68 236 50 236Z" fill="#232F3E"/>
<path d="M50 257.3C32.66 257.3 14.26 252.52 14.26 243.64H18.26C18.26 247.64 30.26 253.3 50 253.3C69.74 253.3 81.76 247.68 81.76 243.64H85.76C85.76 252.52 67.34 257.3 50 257.3Z" fill="#232F3E"/>
<path d="M50 97C32.66 97 14.26 92.22 14.26 83.34V16.66C14.26 7.78 32.66 3 50 3C67.34 3 85.76 7.78 85.76 16.66V83.34C85.76 92.22 67.34 97 50 97ZM50 7C30.32 7 18.26 12.62 18.26 16.66V83.34C18.26 87.34 30.26 93 50 93C69.74 93 81.76 87.38 81.76 83.34V16.66C81.76 12.62 69.68 7 50 7Z" fill="#232F3E"/>
<path d="M50 28.3C32.66 28.3 14.26 23.52 14.26 14.64H18.26C18.26 18.64 30.26 24.3 50 24.3C69.74 24.3 81.76 18.68 81.76 14.64H85.76C85.76 23.52 67.34 28.3 50 28.3Z" fill="#232F3E"/>
<path d="M50 207C32.66 207 14.26 202.22 14.26 193.34V126.66C14.26 117.78 32.66 113 50 113C67.34 113 85.76 117.78 85.76 126.66V193.34C85.76 202.22 67.34 207 50 207ZM50 117C30.32 117 18.26 122.62 18.26 126.66V193.34C18.26 197.34 30.26 203 50 203C69.74 203 81.76 197.38 81.76 193.34V126.66C81.76 122.62 69.68 117 50 117Z" fill="#232F3E"/>
<path d="M50 138.3C32.66 138.3 14.26 133.52 14.26 124.64H18.26C18.26 128.64 30.26 134.3 50 134.3C69.74 134.3 81.76 128.68 81.76 124.64H85.76C85.76 133.52 67.34 138.3 50 138.3Z" fill="#232F3E"/>
<path d="M50 326C32.66 326 14.26 321.22 14.26 312.34V245.66C14.26 236.78 32.66 232 50 232C67.34 232 85.76 236.78 85.76 245.66V312.34C85.76 321.22 67.34 326 50 326ZM50 236C30.32 236 18.26 241.62 18.26 245.66V312.34C18.26 316.34 30.26 322 50 322C69.74 322 81.76 316.38 81.76 312.34V245.66C81.76 241.62 69.68 236 50 236Z" fill="#232F3E"/>
<path d="M50 257.3C32.66 257.3 14.26 252.52 14.26 243.64H18.26C18.26 247.64 30.26 253.3 50 253.3C69.74 253.3 81.76 247.68 81.76 243.64H85.76C85.76 252.52 67.34 257.3 50 257.3Z" fill="#232F3E"/>
<path d="M50 97C32.66 97 14.26 92.22 14.26 83.34V16.66C14.26 7.78 32.66 3 50 3C67.34 3 85.76 7.78 85.76 16.66V83.34C85.76 92.22 67.34 97 50 97ZM50 7C30.32 7 18.26 12.62 18.26 16.66V83.34C18.26 87.34 30.26 93 50 93C69.74 93 81.76 87.38 81.76 83.34V16.66C81.76 12.62 69.68 7 50 7Z" fill="#232F3E"/>
<path d="M50 28.3C32.66 28.3 14.26 23.52 14.26 14.64H18.26C18.26 18.64 30.26 24.3 50 24.3C69.74 24.3 81.76 18.68 81.76 14.64H85.76C85.76 23.52 67.34 28.3 50 28.3Z" fill="#232F3E"/>
<path d="M50 207C32.66 207 14.26 202.22 14.26 193.34V126.66C14.26 117.78 32.66 113 50 113C67.34 113 85.76 117.78 85.76 126.66V193.34C85.76 202.22 67.34 207 50 207ZM50 117C30.32 117 18.26 122.62 18.26 126.66V193.34C18.26 197.34 30.26 203 50 203C69.74 203 81.76 197.38 81.76 193.34V126.66C81.76 122.62 69.68 117 50 117Z" fill="#232F3E"/>
<path d="M50 138.3C32.66 138.3 14.26 133.52 14.26 124.64H18.26C18.26 128.64 30.26 134.3 50 134.3C69.74 134.3 81.76 128.68 81.76 124.64H85.76C85.76 133.52 67.34 138.3 50 138.3Z" fill="#232F3E"/>
<path d="M50 326C32.66 326 14.26 321.22 14.26 312.34V245.66C14.26 236.78 32.66 232 50 232C67.34 232 85.76 236.78 85.76 245.66V312.34C85.76 321.22 67.34 326 50 326ZM50 236C30.32 236 18.26 241.62 18.26 245.66V312.34C18.26 316.34 30.26 322 50 322C69.74 322 81.76 316.38 81.76 312.34V245.66C81.76 241.62 69.68 236 50 236Z" fill="#232F3E"/>
<path d="M50 257.3C32.66 257.3 14.26 252.52 14.26 243.64H18.26C18.26 247.64 30.26 253.3 50 253.3C69.74 253.3 81.76 247.68 81.76 243.64H85.76C85.76 252.52 67.34 257.3 50 257.3Z" fill="#232F3E"/>
<path d="M50 97C32.66 97 14.26 92.22 14.26 83.34V16.66C14.26 7.78 32.66 3 50 3C67.34 3 85.76 7.78 85.76 16.66V83.34C85.76 92.22 67.34 97 50 97ZM50 7C30.32 7 18.26 12.62 18.26 16.66V83.34C18.26 87.34 30.26 93 50 93C69.74 93 81.76 87.38 81.76 83.34V16.66C81.76 12.62 69.68 7 50 7Z" fill="#232F3E"/>
<path d="M50 28.3C32.66 28.3 14.26 23.52 14.26 14.64H18.26C18.26 18.64 30.26 24.3 50 24.3C69.74 24.3 81.76 18.68 81.76 14.64H85.76C85.76 23.52 67.34 28.3 50 28.3Z" fill="#232F3E"/>
<path d="M50 207C32.66 207 14.26 202.22 14.26 193.34V126.66C14.26 117.78 32.66 113 50 113C67.34 113 85.76 117.78 85.76 126.66V193.34C85.76 202.22 67.34 207 50 207ZM50 117C30.32 117 18.26 122.62 18.26 126.66V193.34C18.26 197.34 30.26 203 50 203C69.74 203 81.76 197.38 81.76 193.34V126.66C81.76 122.62 69.68 117 50 117Z" fill="#232F3E"/>
<path d="M50 138.3C32.66 138.3 14.26 133.52 14.26 124.64H18.26C18.26 128.64 30.26 134.3 50 134.3C69.74 134.3 81.76 128.68 81.76 124.64H85.76C85.76 133.52 67.34 138.3 50 138.3Z" fill="#232F3E"/>
<path d="M50 326C32.66 326 14.26 321.22 14.26 312.34V245.66C14.26 236.78 32.66 232 50 232C67.34 232 85.76 236.78 85.76 245.66V312.34C85.76 321.22 67.34 326 50 326ZM50 236C30.32 236 18.26 241.62 18.26 245.66V312.34C18.26 316.34 30.26 322 50 322C69.74 322 81.76 316.38 81.76 312.34V245.66C81.76 241.62 69.68 236 50 236Z" fill="#232F3E"/>
<path d="M50 257.3C32.66 257.3 14.26 252.52 14.26 243.64H18.26C18.26 247.64 30.26 253.3 50 253.3C69.74 253.3 81.76 247.68 81.76 243.64H85.76C85.76 252.52 67.34 257.3 50 257.3Z" fill="#232F3E"/>
<path d="M50 97C32.66 97 14.26 92.22 14.26 83.34V16.66C14.26 7.78 32.66 3 50 3C67.34 3 85.76 7.78 85.76 16.66V83.34C85.76 92.22 67.34 97 50 97ZM50 7C30.32 7 18.26 12.62 18.26 16.66V83.34C18.26 87.34 30.26 93 50 93C69.74 93 81.76 87.38 81.76 83.34V16.66C81.76 12.62 69.68 7 50 7Z" fill="#232F3E"/>
<path d="M50 28.3C32.66 28.3 14.26 23.52 14.26 14.64H18.26C18.26 18.64 30.26 24.3 50 24.3C69.74 24.3 81.76 18.68 81.76 14.64H85.76C85.76 23.52 67.34 28.3 50 28.3Z" fill="#232F3E"/>
<path d="M50 207C32.66 207 14.26 202.22 14.26 193.34V126.66C14.26 117.78 32.66 113 50 113C67.34 113 85.76 117.78 85.76 126.66V193.34C85.76 202.22 67.34 207 50 207ZM50 117C30.32 117 18.26 122.62 18.26 126.66V193.34C18.26 197.34 30.26 203 50 203C69.74 203 81.76 197.38 81.76 193.34V126.66C81.76 122.62 69.68 117 50 117Z" fill="#232F3E"/>
<path d="M50 138.3C32.66 138.3 14.26 133.52 14.26 124.64H18.26C18.26 128.64 30.26 134.3 50 134.3C69.74 134.3 81.76 128.68 81.76 124.64H85.76C85.76 133.52 67.34 138.3 50 138.3Z" fill="#232F3E"/>
<path d="M50 326C32.66 326 14.26 321.22 14.26 312.34V245.66C14.26 236.78 32.66 232 50 232C67.34 232 85.76 236.78 85.76 245.66V312.34C85.76 321.22 67.34 326 50 326ZM50 236C30.32 236 18.26 241.62 18.26 245.66V312.34C18.26 316.34 30.26 322 50 322C69.74 322 81.76 316.38 81.76 312.34V245.66C81.76 241.62 69.68 236 50 236Z" fill="#232F3E"/>
<path d="M50 257.3C32.66 257.3 14.26 252.52 14.26 243.64H18.26C18.26 247.64 30.26 253.3 50 253.3C69.74 253.3 81.76 247.68 81.76 243.64H85.76C85.76 252.52 67.34 257.3 50 257.3Z" fill="#232F3E"/>
<path d="M50 97C32.66 97 14.26 92.22 14.26 83.34V16.66C14.26 7.78 32.66 3 50 3C67.34 3 85.76 7.78 85.76 16.66V83.34C85.76 92.22 67.34 97 50 97ZM50 7C30.32 7 18.26 12.62 18.26 16.66V83.34C18.26 87.34 30.26 93 50 93C69.74 93 81.76 87.38 81.76 83.34V16.66C81.76 12.62 69.68 7 50 7Z" fill="#232F3E"/>
<path d="M50 28.3C32.66 28.3 14.26 23.52 14.26 14.64H18.26C18.26 18.64 30.26 24.3 50 24.3C69.74 24.3 81.76 18.68 81.76 14.64H85.76C85.76 23.52 67.34 28.3 50 28.3Z" fill="#232F3E"/>
<path d="M50 207C32.66 207 14.26 202.22 14.26 193.34V126.66C14.26 117.78 32.66 113 50 113C67.34 113 85.76 117.78 85.76 126.66V193.34C85.76 202.22 67.34 207 50 207ZM50 117C30.32 117 18.26 122.62 18.26 126.66V193.34C18.26 197.34 30.26 203 50 203C69.74 203 81.76 197.38 81.76 193.34V126.66C81.76 122.62 69.68 117 50 117Z" fill="#232F3E"/>
<path d="M50 138.3C32.66 138.3 14.26 133.52 14.26 124.64H18.26C18.26 128.64 30.26 134.3 50 134.3C69.74 134.3 81.76 128.68 81.76 124.64H85.76C85.76 133.52 67.34 138.3 50 138.3Z" fill="#232F3E"/>
<path d="M50 326C32.66 326 14.26 321.22 14.26 312.34V245.66C14.26 236.78 32.66 232 50 232C67.34 232 85.76 236.78 85.76 245.66V312.34C85.76 321.22 67.34 326 50 326ZM50 236C30.32 236 18.26 241.62 18.26 245.66V312.34C18.26 316.34 30.26 322 50 322C69.74 322 81.76 316.38 81.76 312.34V245.66C81.76 241.62 69.68 236 50 236Z" fill="#232F3E"/>
<path d="M50 257.3C32.66 257.3 14.26 252.52 14.26 243.64H18.26C18.26 247.64 30.26 253.3 50 253.3C69.74 253.3 81.76 247.68 81.76 243.64H85.76C85.76 252.52 67.34 257.3 50 257.3Z" fill="#232F3E"/>
<path d="M50 97C32.66 97 14.26 92.22 14.26 83.34V16.66C14.26 7.78 32.66 3 50 3C67.34 3 85.76 7.78 85.76 16.66V83.34C85.76 92.22 67.34 97 50 97ZM50 7C30.32 7 18.26 12.62 18.26 16.66V83.34C18.26 87.34 30.26 93 50 93C69.74 93 81.76 87.38 81.76 83.34V16.66C81.76 12.62 69.68 7 50 7Z" fill="#232F3E"/>
<path d="M50 28.3C32.66 28.3 14.26 23.52 14.26 14.64H18.26C18.26 18.64 30.26 24.3 50 24.3C69.74 24.3 81.76 18.68 81.76 14.64H85.76C85.76 23.52 67.34 28.3 50 28.3Z" fill="#232F3E"/>
<path d="M50 207C32.66 207 14.26 202.22 14.26 193.34V126.66C14.26 117.78 32.66 113 50 113C67.34 113 85.76 117.78 85.76 126.66V193.34C85.76 202.22 67.34 207 50 207ZM50 117C30.32 117 18.26 122.62 18.26 126.66V193.34C18.26 197.34 30.26 203 50 203C69.74 203 81.76 197.38 81.76 193.34V126.66C81.76 122.62 69.68 117 50 117Z" fill="#232F3E"/>
<path d="M50 138.3C32.66 138.3 14.26 133.52 14.26 124.64H18.26C18.26 128.64 30.26 134.3 50 134.3C69.74 134.3 81.76 128.68 81.76 124.64H85.76C85.76 133.52 67.34 138.3 50 138.3Z" fill="#232F3E"/>
<path d="M50 326C32.66 326 14.26 321.22 14.26 312.34V245.66C14.26 236.78 32.66 232 50 232C67.34 232 85.76 236.78 85.76 245.66V312.34C85.76 321.22 67.34 326 50 326ZM50 236C30.32 236 18.26 241.62 18.26 245.66V312.34C18.26 316.34 30.26 322 50 322C69.74 322 81.76 316.38 81.76 312.34V245.66C81.76 241.62 69.68 236 50 236Z" fill="#232F3E"/>
<path d="M50 257.3C32.66 257.3 14.26 252.52 14.26 243.64H18.26C18.26 247.64 30.26 253.3 50 253.3C69.74 253.3 81.76 247.68 81.76 243.64H85.76C85.76 252.52 67.34 257.3 50 257.3Z" fill="#232F3E"/>
<path d="M50 97C32.66 97 14.26 92.22 14.26 83.34V16.66C14.26 7.78 32.66 3 50 3C67.34 3 85.76 7.78 85.76 16.66V83.34C85.76 92.22 67.34 97 50 97ZM50 7C30.32 7 18.26 12.62 18.26 16.66V83.34C18.26 87.34 30.26 93 50 93C69.74 93 81.76 87.38 81.76 83.34V16.66C81.76 12.62 69.68 7 50 7Z" fill="#232F3E"/>
<path d="M50 28.3C32.66 28.3 14.26 23.52 14.26 14.64H18.26C18.26 18.64 30.26 24.3 50 24.3C69.74 24.3 81.76 18.68 81.76 14.64H85.76C85.76 23.52 67.34 28.3 50 28.3Z" fill="#232F3E"/>
<path d="M50 207C32.66 207 14.26 202.22 14.26 193.34V126.66C14.26 117.78 32.66 113 50 113C67.34 113 85.76 117.78 85.76 126.66V193.34C85.76 202.22 67.34 207 50 207ZM50 117C30.32 117 18.26 122.62 18.26 126.66V193.34C18.26 197.34 30.26 203 50 203C69.74 203 81.76 197.38 81.76 193.34V126.66C81.76 122.62 69.68 117 50 117Z" fill="#232F3E"/>
<path d="M50 138.3C32.66 138.3 14.26 133.52 14.26 124.64H18.26C18.26 128.64 30.26 134.3 50 134.3C69.74 134.3 81.76 128.68 81.76 124.64H85.76C85.76 133.52 67.34 138.3 50 138.3Z" fill="#232F3E"/>
<path d="M50 326C32.66 326 14.26 321.22 14.26 312.34V245.66C14.26 236.78 32.66 232 50 232C67.34 232 85.76 236.78 85.76 245.66V312.34C85.76 321.22 67.34 326 50 326ZM50 236C30.32 236 18.26 241.62 18.26 245.66V312.34C18.26 316.34 30.26 322 50 322C69.74 322 81.76 316.38 81.76 312.34V245.66C81.76 241.62 69.68 236 50 236Z" fill="#232F3E"/>
<path d="M50 257.3C32.66 257.3 14.26 252.52 14.26 243.64H18.26C18.26 247.64 30.26 253.3 50 253.3C69.74 253.3 81.76 247.68 81.76 243.64H85.76C85.76 252.52 67.34 257.3 50 257.3Z" fill="#232F3E"/>
<path d="M50 97C32.66 97 14.26 92.22 14.26 83.34V16.66C14.26 7.78 32.66 3 50 3C67.34 3 85.76 7.78 85.76 16.66V83.34C85.76 92.22 67.34 97 50 97ZM50 7C30.32 7 18.26 12.62 18.26 16.66V83.34C18.26 87.34 30.26 93 50 93C69.74 93 81.76 87.38 81.76 83.34V16.66C81.76 12.62 69.68 7 50 7Z" fill="#232F3E"/>
<path d="M50 28.3C32.66 28.3 14.26 23.52 14.26 14.64H18.26C18.26 18.64 30.26 24.3 50 24.3C69.74 24.3 81.76 18.68 81.76 14.64H85.76C85.76 23.52 67.34 28.3 50 28.3Z" fill="#232F3E"/>
<path d="M50 207C32.66 207 14.26 202.22 14.26 193.34V126.66C14.26 117.78 32.66 113 50 113C67.34 113 85.76 117.78 85.76 126.66V193.34C85.76 202.22 67.34 207 50 207ZM50 117C30.32 117 18.26 122.62 18.26 126.66V193.34C18.26 197.34 30.26 203 50 203C69.74 203 81.76 197.38 81.76 193.34V126.66C81.76 122.62 69.68 117 50 117Z" fill="#232F3E"/>
<path d="M50 138.3C32.66 138.3 14.26 133.52 14.26 124.64H18.26C18.26 128.64 30.26 134.3 50 134.3C69.74 134.3 81.76 128.68 81.76 124.64H85.76C85.76 133.52 67.34 138.3 50 138.3Z" fill="#232F3E"/>
<path d="M50 326C32.66 326 14.26 321.22 14.26 312.34V245.66C14.26 236.78 32.66 232 50 232C67.34 232 85.76 236.78 85.76 245.66V312.34C85.76 321.22 67.34 326 50 326ZM50 236C30.32 236 18.26 241.62 18.26 245.66V312.34C18.26 316.34 30.26 322 50 322C69.74 322 81.76 316.38 81.76 312.34V245.66C81.76 241.62 69.68 236 50 236Z" fill="#232F3E"/>
<path d="M50 257.3C32.66 257.3 14.26 252.52 14.26 243.64H18.26C18.26 247.64 30.26 253.3 50 253.3C69.74 253.3 81.76 247.68 81.76 243.64H85.76C85.76 252.52 67.34 257.3 50 257.3Z" fill="#232F3E"/>
<path d="M50 97C32.66 97 14.26 92.22 14.26 83.34V16.66C14.26 7.78 32.66 3 50 3C67.34 3 85.76 7.78 85.76 16.66V83.34C85.76 92.22 67.34 97 50 97ZM50 7C30.32 7 18.26 12.62 18.26 16.66V83.34C18.26 87.34 30.26 93 50 93C69.74 93 81.76 87.38 81.76 83.34V16.66C81.76 12.62 69.68 7 50 7Z" fill="#232F3E"/>
<path d="M50 28.3C32.66 28.3 14.26 23.52 14.26 14.64H18.26C18.26 18.64 30.26 24.3 50 24.3C69.74 24.3 81.76 18.68 81.76 14.64H85.76C85.76 23.52 67.34 28.3 50 28.3Z" fill="#232F3E"/>
<path d="M50 207C32.66 207 14.26 202.22 14.26 193.34V126.66C14.26 117.78 32.66 113 50 113C67.34 113 85.76 117.78 85.76 126.66V193.34C85.76 202.22 67.34 207 50 207ZM50 117C30.32 117 18.26 122.62 18.26 126.66V193.34C18.26 197.34 30.26 203 50 203C69.74 203 81.76 197.38 81.76 193.34V126.66C81.76 122.62 69.68 117 50 117Z" fill="#232F3E"/>
<path d="M50 138.3C32.66 138.3 14.26 133.52 14.26 124.64H18.26C18.26 128.64 30.26 134.3 50 134.3C69.74 134.3 81.76 128.68 81.76 124.64H85.76C85.76 133.52 67.34 138.3 50 138.3Z" fill="#232F3E"/>
<path d="M50 326C32.66 326 14.26 321.22 14.26 312.34V245.66C14.26 236.78 32.66 232 50 232C67.34 232 85.76 236.78 85.76 245.66V312.34C85.76 321.22 67.34 326 50 326ZM50 236C30.32 236 18.26 241.62 18.26 245.66V312.34C18.26 316.34 30.26 322 50 322C69.74 322 81.76 316.38 81.76 312.34V245.66C81.76 241.62 69.68 236 50 236Z" fill="#232F3E"/>
<path d="M50 257.3C32.66 257.3 14.26 252.52 14.26 243.64H18.26C18.26 247.64 30.26 253.3 50 253.3C69.74 253.3 81.76 247.68 81.76 243.64H85.76C85.76 252.52 67.34 257.3 50 257.3Z" fill="#232F3E"/>
<path d="M50 97C32.66 97 14.26 92.22 14.26 83.34V16.66C14.26 7.78 32.66 3 50 3C67.34 3 85.76 7.78 85.76 16.66V83.34C85.76 92.22 67.34 97 50 97ZM50 7C30.32 7 18.26 12.62 18.26 16.66V83.34C18.26 87.34 30.26 93 50 93C69.74 93 81.76 87.38 81.76 83.34V16.66C81.76 12.62 69.68 7 50 7Z" fill="#232F3E"/>
<path d="M50 28.3C32.66 28.3 14.26 23.52 14.26 14.64H18.26C18.26 18.64 30.26 24.3 50 24.3C69.74 24.3 81.76 18.68 81.76 14.64H85.76C85.76 23.52 67.34 28.3 50 28.3Z" fill="#232F3E"/>
<path d="M50 207C32.66 207 14.26 202.22 14.26 193.34V126.66C14.26 117.78 32.66 113 50 113C67.34 113 85.76 117.78 85.76 126.66V193.34C85.76 202.22 67.34 207 50 207ZM50 117C30.32 117 18.26 122.62 18.26 126.66V193.34C18.26 197.34 30.26 203 50 203C69.74 203 81.76 197.38 81.76 193.34V126.66C81.76 122.62 69.68 117 50 117Z" fill="#232F3E"/>
<path d="M50 138.3C32.66 138.3 14.26 133.52 14.26 124.64H18.26C18.26 128.64 30.26 134.3 50 134.3C69.74 134.3 81.76 128.68 81.76 124.64H85.76C85.76 133.52 67.34 138.3 50 138.3Z" fill="#232F3E"/>
<path d="M50 326C32.66 326 14.26 321.22 14.26 312.34V245.66C14.26 236.78 32.66 232 50 232C67.34 232 85.76 236.78 85.76 245.66V312.34C85.76 321.22 67.34 326 50 326ZM50 236C30.32 236 18.26 241.62 18.26 245.66V312.34C18.26 316.34 30.26 322 50 322C69.74 322 81.76 316.38 81.76 312.34V245.66C81.76 241.62 69.68 236 50 236Z" fill="#232F3E"/>
<path d="M50 257.3C32.66 257.3 14.26 252.52 14.26 243.64H18.26C18.26 247.64 30.26 253.3 50 253.3C69.74 253.3 81.76 247.68 81.76 243.64H85.76C85.76 252.52 67.34 257.3 50 257.3Z" fill="#232F3E"/>
<path d="M50 97C32.66 97 14.26 92.22 14.26 83.34V16.66C14.26 7.78 32.66 3 50 3C67.34 3 85.76 7.78 85.76 16.66V83.34C85.76 92.22 67.34 97 50 97ZM50 7C30.32 7 18.26 12.62 18.26 16.66V83.34C18.26 87.34 30.26 93 50 93C69.74 93 81.76 87.38 81.76 83.34V16.66C81.76 12.62 69.68 7 50 7Z" fill="#232F3E"/>
<path d="M50 28.3C32.66 28.3 14.26 23.52 14.26 14.64H18.26C18.26 18.64 30.26 24.3 50 24.3C69.74 24.3 81.76 18.68 81.76 14.64H85.76C85.76 23.52 67.34 28.3 50 28.3Z" fill="#232F3E"/>
<path d="M50 207C32.66 207 14.26 202.22 14.26 193.34V126.66C14.26 117.78 32.66 113 50 113C67.34 113 85.76 117.78 85.76 126.66V193.34C85.76 202.22 67.34 207 50 207ZM50 117C30.32 117 18.26 122.62 18.26 126.66V193.34C18.26 197.34 30.26 203 50 203C69.74 203 81.76 197.38 81.76 193.34V126.66C81.76 122.62 69.68 117 50 117Z" fill="#232F3E"/>
<path d="M50 138.3C32.66 138.3 14.26 133.52 14.26 124.64H18.26C18.26 128.64 30.26 134.3 50 134.3C69.74 134.3 81.76 128.68 81.76 124.64H85.76C85.76 133.52 67.34 138.3 50 138.3Z" fill="#232F3E"/>
<path d="M50 326C32.66 326 14.26 321.22 14.26 312.34V245.66C14.26 236.78 32.66 232 50 232C67.34 232 85.76 236.78 85.76 245.66V312.34C85.76 321.22 67.34 326 50 326ZM50 236C30.32 236 18.26 241.62 18.26 245.66V312.34C18.26 316.34 30.26 322 50 322C69.74 322 81.76 316.38 81.76 312.34V245.66C81.76 241.62 69.68 236 50 236Z" fill="#232F3E"/>
<path d="M50 257.3C32.66 257.3 14.26 252.52 14.26 243.64H18.26C18.26 247.64 30.26 253.3 50 253.3C69.74 253.3 81.76 247.68 81.76 243.64H85.76C85.76 252.52 67.34 257.3 50 257.3Z" fill="#232F3E"/>
<path d="M403.262 161.523L483.26 160.999" stroke="black" stroke-width="2"/>
<path d="M460.104 137.15L484.26 160.993L460.418 185.149" stroke="black" stroke-width="2"/>
<path d="M653.262 160.523L733.26 159.999" stroke="black" stroke-width="2"/>
<path d="M710.104 136.15L734.26 159.993L710.418 184.149" stroke="black" stroke-width="2"/>
<path d="M986.408 161.998L906.412 162.821" stroke="black" stroke-width="2"/>
<path d="M929.658 186.583L905.412 162.832L929.163 138.586" stroke="black" stroke-width="2"/>
<path d="M124.03 161.061L204.03 161" stroke="black" stroke-width="2"/>
<path d="M147.049 185.043L123.03 161.062L147.012 137.043" stroke="black" stroke-width="2"/>
<path d="M181.012 137.018L205.03 160.999L181.049 185.018" stroke="black" stroke-width="2"/>
<path d="M128.071 279.827L199.442 243.685" stroke="black" stroke-width="2"/>
<path d="M159.432 290.847L127.178 280.278L137.747 248.025" stroke="black" stroke-width="2"/>
<path d="M168.08 232.665L200.334 243.234L189.765 275.487" stroke="black" stroke-width="2"/>
<path d="M129.235 57.2502L195.736 101.721" stroke="black" stroke-width="2"/>
<path d="M135.013 89.9859L128.404 56.6944L161.696 50.0856" stroke="black" stroke-width="2"/>
<path d="M189.958 68.9857L196.567 102.277L163.276 108.886" stroke="black" stroke-width="2"/>
<path d="M1024.38 160H1000C999.47 160 998.961 159.789 998.586 159.414C998.211 159.039 998 158.53 998 158V155C997.994 149.662 999.783 144.477 1003.08 140.28C1006.38 136.083 1010.99 133.117 1016.18 131.86C1016.67 131.744 1017.18 131.815 1017.62 132.06C1019.14 132.872 1020.83 133.297 1022.55 133.297C1024.27 133.297 1025.96 132.872 1027.48 132.06C1027.92 131.815 1028.43 131.744 1028.92 131.86C1031.64 132.524 1034.22 133.662 1036.54 135.22L1034.3 138.54C1032.57 137.403 1030.68 136.546 1028.68 136C1026.76 136.885 1024.67 137.343 1022.55 137.343C1020.43 137.343 1018.34 136.885 1016.42 136C1012.27 137.167 1008.62 139.657 1006.02 143.09C1003.42 146.523 1002 150.712 1002 155.02V156H1024.38V160Z" fill="#232F3E"/>
<path d="M1022.52 137.26C1019.04 137.26 1015.7 135.878 1013.24 133.417C1010.78 130.957 1009.4 127.62 1009.4 124.14C1009.4 120.66 1010.78 117.323 1013.24 114.863C1015.7 112.402 1019.04 111.02 1022.52 111.02C1025.45 110.992 1028.3 111.944 1030.62 113.725C1032.94 115.505 1034.6 118.011 1035.33 120.843C1036.06 123.675 1035.82 126.671 1034.65 129.352C1033.48 132.034 1031.45 134.248 1028.88 135.64V135.64C1026.93 136.703 1024.74 137.26 1022.52 137.26V137.26ZM1022.52 115.02C1020.09 115.009 1017.75 115.964 1016.02 117.673C1014.3 119.383 1013.32 121.709 1013.3 124.14C1013.3 125.779 1013.74 127.388 1014.58 128.796C1015.41 130.205 1016.62 131.36 1018.06 132.14C1019.43 132.884 1020.96 133.274 1022.52 133.274C1024.08 133.274 1025.61 132.884 1026.98 132.14V132.14C1028.77 131.17 1030.18 129.629 1030.99 127.763C1031.8 125.896 1031.96 123.812 1031.45 121.843C1030.94 119.873 1029.78 118.133 1028.16 116.9C1026.54 115.667 1024.55 115.012 1022.52 115.04V115.02Z" fill="#232F3E"/>
<path d="M1090 160H1065.62V156H1088V155C1087.99 150.692 1086.58 146.504 1083.97 143.074C1081.37 139.644 1077.71 137.16 1073.56 136C1071.64 136.894 1069.55 137.357 1067.43 137.357C1065.31 137.357 1063.22 136.894 1061.3 136C1059.26 136.56 1057.34 137.46 1055.6 138.66L1053.34 135.38C1055.66 133.75 1058.25 132.563 1061 131.88C1061.49 131.769 1062 131.832 1062.44 132.06C1063.96 132.883 1065.66 133.314 1067.39 133.314C1069.12 133.314 1070.82 132.883 1072.34 132.06C1072.77 131.827 1073.28 131.763 1073.76 131.88C1078.95 133.133 1083.57 136.097 1086.87 140.295C1090.17 144.493 1091.97 149.68 1091.96 155.02V158C1091.96 158.524 1091.75 159.026 1091.39 159.4C1091.02 159.774 1090.52 159.99 1090 160Z" fill="#232F3E"/>
<path d="M1067.4 137.26C1064.18 137.255 1061.07 136.076 1058.66 133.943C1056.25 131.81 1054.7 128.87 1054.3 125.675C1053.9 122.48 1054.68 119.249 1056.5 116.59C1058.31 113.93 1061.04 112.024 1064.16 111.229C1067.28 110.434 1070.58 110.806 1073.44 112.273C1076.31 113.741 1078.54 116.204 1079.72 119.2C1080.9 122.196 1080.94 125.52 1079.85 128.546C1078.75 131.573 1076.59 134.096 1073.76 135.64C1071.81 136.703 1069.62 137.26 1067.4 137.26ZM1067.4 115.02C1064.97 115.009 1062.63 115.964 1060.9 117.673C1059.18 119.383 1058.2 121.709 1058.18 124.14C1058.18 125.779 1058.62 127.388 1059.46 128.796C1060.29 130.205 1061.5 131.36 1062.94 132.14C1064.31 132.884 1065.84 133.274 1067.4 133.274C1068.96 133.274 1070.49 132.884 1071.86 132.14V132.14C1073.66 131.176 1075.08 129.634 1075.9 127.763C1076.72 125.892 1076.88 123.8 1076.37 121.824C1075.85 119.848 1074.69 118.103 1073.06 116.869C1071.44 115.635 1069.44 114.983 1067.4 115.02V115.02Z" fill="#232F3E"/>
<path d="M1076.88 204.98H1013C1012.47 204.98 1011.96 204.769 1011.59 204.394C1011.21 204.019 1011 203.51 1011 202.98V198.74C1010.98 191.365 1013.44 184.197 1017.99 178.392C1022.54 172.587 1028.91 168.483 1036.08 166.74C1036.57 166.618 1037.08 166.682 1037.52 166.92C1039.8 168.137 1042.34 168.773 1044.92 168.773C1047.5 168.773 1050.04 168.137 1052.32 166.92C1052.76 166.682 1053.27 166.618 1053.76 166.74C1060.94 168.472 1067.32 172.572 1071.88 178.378C1076.43 184.185 1078.9 191.358 1078.88 198.74V202.98C1078.88 203.51 1078.67 204.019 1078.29 204.394C1077.92 204.769 1077.41 204.98 1076.88 204.98V204.98ZM1015 200.98H1074.88V198.74C1074.88 192.394 1072.78 186.225 1068.92 181.189C1065.06 176.152 1059.65 172.529 1053.52 170.88C1050.84 172.178 1047.9 172.852 1044.92 172.852C1041.94 172.852 1039 172.178 1036.32 170.88C1030.2 172.537 1024.79 176.163 1020.94 181.199C1017.09 186.234 1015 192.399 1015 198.74V200.98Z" fill="#232F3E"/>
<path d="M1045 172.78C1041.97 172.786 1039 172.03 1036.34 170.58C1032.83 168.663 1030.06 165.632 1028.46 161.965C1026.87 158.298 1026.54 154.205 1027.53 150.33C1028.52 146.456 1030.77 143.021 1033.93 140.568C1037.09 138.115 1040.97 136.784 1044.97 136.784C1048.97 136.784 1052.85 138.115 1056.01 140.568C1059.17 143.021 1061.42 146.456 1062.41 150.33C1063.4 154.205 1063.07 158.298 1061.48 161.965C1059.88 165.632 1057.11 168.663 1053.6 170.58V170.58C1050.96 172.02 1048.01 172.776 1045 172.78V172.78ZM1045 141.28C1041.93 141.245 1038.94 142.236 1036.51 144.097C1034.07 145.957 1032.32 148.579 1031.55 151.546C1030.77 154.513 1031.01 157.654 1032.23 160.469C1033.45 163.284 1035.57 165.611 1038.26 167.08C1040.32 168.188 1042.63 168.768 1044.97 168.768C1047.31 168.768 1049.62 168.188 1051.68 167.08C1054.38 165.625 1056.52 163.305 1057.75 160.491C1058.98 157.677 1059.23 154.532 1058.46 151.56C1057.69 148.587 1055.95 145.959 1053.51 144.095C1051.06 142.232 1048.07 141.24 1045 141.28Z" fill="#232F3E"/>
</svg>
