<svg id="Layer_1" data-name="Layer 1" xmlns="http://www.w3.org/2000/svg" viewBox="0 0 128 128"><defs><style>.cls-1{fill:#e40303;}.cls-2{fill:#ff8c00;}.cls-3{fill:#ffed00;}.cls-4{fill:#008026;}.cls-5{fill:#004dff;}.cls-6{fill:#750787;}.cls-7{fill:#333;}</style></defs><polygon class="cls-1" points="104.75 21.34 29.44 21.34 34.09 0.03 109.4 0.03 104.75 21.34"/><polygon class="cls-2" points="100.48 42.66 25.18 42.66 29.82 21.34 105.13 21.34 100.48 42.66"/><polygon class="cls-3" points="96.22 63.97 20.91 63.97 25.56 42.66 100.87 42.66 96.22 63.97"/><polygon class="cls-4" points="91.96 85.29 16.65 85.29 21.3 63.97 96.61 63.97 91.96 85.29"/><polygon class="cls-5" points="87.7 106.6 12.39 106.6 17.04 85.29 92.34 85.29 87.7 106.6"/><polygon class="cls-6" points="83.43 127.92 8.12 127.92 12.77 106.6 88.08 106.6 83.43 127.92"/><polygon class="cls-7" points="108.39 0.03 123.22 0.03 93.69 128 78.87 128 108.39 0.03"/><polygon class="cls-7" points="99.86 0 114.68 0 85.16 127.97 70.34 127.97 99.86 0"/><polygon class="cls-7" points="34.05 0.03 48.87 0.03 19.35 128 4.52 128 34.05 0.03"/><polygon class="cls-7" points="40.14 0 54.97 0 25.44 127.97 10.62 127.97 40.14 0"/></svg>