<svg id="Layer_1" data-name="Layer 1" xmlns="http://www.w3.org/2000/svg" viewBox="0 0 127.54 133.65"><defs><style>.cls-1{fill:#e40303;}.cls-2{fill:#ff8c00;}.cls-3{fill:#ffed00;}.cls-4{fill:#008026;}.cls-5{fill:#004dff;}.cls-6{fill:#750787;}</style></defs><polygon class="cls-1" points="103.73 25.55 29.53 25.55 34.11 4.55 108.31 4.55 103.73 25.55"/><polygon class="cls-2" points="99.47 46.55 25.27 46.55 29.85 25.55 104.05 25.55 99.47 46.55"/><polygon class="cls-3" points="95.21 67.55 21.01 67.55 25.59 46.55 99.79 46.55 95.21 67.55"/><polygon class="cls-4" points="90.95 88.55 16.75 88.55 21.33 67.55 95.53 67.55 90.95 88.55"/><polygon class="cls-5" points="86.68 109.55 12.48 109.55 17.06 88.55 91.26 88.55 86.68 109.55"/><polygon class="cls-6" points="82.42 130.55 8.22 130.55 12.8 109.55 87 109.55 82.42 130.55"/><polygon points="107.31 4.55 121.9 4.55 92.83 130.55 78.24 130.55 107.31 4.55"/><polygon points="98.91 4.55 113.5 4.55 84.43 130.55 69.84 130.55 98.91 4.55"/><polygon points="33.09 4.55 47.69 4.55 18.62 130.55 4.03 130.55 33.09 4.55"/><polygon points="39.09 4.55 53.69 4.55 24.62 130.55 10.02 130.55 39.09 4.55"/></svg>