<svg version="1.1" viewBox="0 0 620 600" xmlns="http://www.w3.org/2000/svg">
    <title>Flyten av data fra kilde til bruk</title>
    <style>
        * {
            font-family: "trebuchet ms", verdana, arial, sans-serif;
            font-size: 16px;
        }
        a {
            fill: #0067c5;
            text-decoration: underline;
        }

        a:hover {
            text-decoration: none;
        }

        .edge {
            stroke: gray;
            stroke-width: 2px;
            fill: transparent;
        }

        .subgraph > rect {
            fill: black;
            stroke: black;
            fill-opacity: 0.07;
            stroke-opacity: 0.32;
        }

        .area {
            fill: black;
            stroke: black;
            fill-opacity: 0.07;
            stroke-opacity: 0.32;
        }

        .label {
            fill: white;
            fill-opacity: 0.9;
            stroke: transparent;
        }

        .node {
            stroke: #526cfe;
            fill: #526cfe;
            fill-opacity: 0.1;
            stroke-width: 1px;
        }
    </style>
    
    <g id="datamarkedsplassen" class="subgraph" transform="translate(0,5)">
        <rect width="360" height="90"></rect>
        <text x="180" dominant-baseline="text-before-edge" text-anchor="middle"><a href="https://data.ansatt.nav.no" target="_top">Datamarkedsplassen</a></text>
        <g transform="translate(10,25)">
            <rect class="node" width="110" height="50"></rect>
            <text x="55" y="30" dominant-baseline="center" text-anchor="middle">Dataprodukt 1</text>
        </g>
        <g transform="translate(125,25)">
            <rect class="node" width="110" height="50"></rect>
            <text x="55" y="30" dominant-baseline="center" text-anchor="middle">Dataprodukt 2</text>
        </g>
        <g transform="translate(240,25)">
            <rect class="node" width="110" height="50"></rect>
            <text x="55" y="30" dominant-baseline="center" text-anchor="middle">...</text>
        </g>
    </g>
    <g id="teamets-domene" class="subgraph" transform="translate(0,150)">
        <rect width="600" height="440"></rect>
        <text x="300" dominant-baseline="text-before-edge" text-anchor="middle">Teamets domene</text>
        <g id="analyse" class="subgraph" transform="translate(420, 20)">
            <rect width="170" height="200"></rect>
            <text x="90" dominant-baseline="text-before-edge" text-anchor="middle">Analyse</text>
            <g transform="translate(5,25)">
                <rect class="node" width="160" height="50"></rect>
                <text x="80" y="30" dominant-baseline="center" text-anchor="middle"><a href="/analyse/metabase/" target="_top">Metabase-dashboard</a></text>
            </g>
            <g transform="translate(5,85)">
                <rect class="node" width="80" height="50"></rect>
                <text x="40" y="30" dominant-baseline="center" text-anchor="middle"><a href="/analyse/notebook/" target="_top">Notebook</a></text>
            </g>
            <g transform="translate(5,145)">
                <rect class="node" width="120" height="50"></rect>
                <text x="60" y="30" dominant-baseline="center" text-anchor="middle"><a href="/analyse/datafortellinger/" target="_top">Datafortellinger</a></text>
            </g>
            <path marker-end="url(#end)" class="edge" d="M85 110 C 175 110, 175 170, 128 170"></path>
        </g>
        <g transform="translate(5, 50)">

            <g transform="translate(0, 61)">
                <path marker-end="url(#end)" class="edge" d="M147 210 C 147 160, 50 220, 50 115"></path>
                <path class="edge" d="M435 210 C 435 140, 69 190, 69 170"></path>
            </g>
            <g id="dataprodukt" class="subgraph" transform="translate(0, 20)">
                <rect width="190" height="200"></rect>
                <text x="95" dominant-baseline="text-before-edge" text-anchor="middle"><a href="/dataprodukter/dataprodukt" target="_top">Dataprodukt</a></text>
                 <g transform="translate(50,25)">
                    <rect class="node" width="90" height="30"></rect>
                    <text x="45" y="20" dominant-baseline="center" text-anchor="middle">Beskrivelse</text>
                </g>
                <g transform="translate(5, 165)">
                    <rect class="node" width="180" height="30"></rect>
                    <text x="90" y="20" dominant-baseline="center" text-anchor="middle">(Datasett 2, f.eks.)</text>
                </g>
                <g id="datasett" class="subgraph" transform="translate(5, 65)">
                    <rect width="180" height="95"></rect>
                    <text x="90" dominant-baseline="text-before-edge" text-anchor="middle"><a href="/dataprodukter/dataprodukt#hva-er-et-datasett" target="_top">Datasett 1</a></text>
                    <g id="bq" transform="translate(5,25)">
                        <path class="node" d="M 0,9.651277473876071 a 39.30000305175781,9.651277473876071 0,0,0 78.60000610351562 0 a 39.30000305175781,9.651277473876071 0,0,0 -78.60000610351562 0 l 0,43.65127747387607 a 39.30000305175781,9.651277473876071 0,0,0 78.60000610351562 0 l 0,-43.65127747387607"></path>
                        <text x="40" y="40" dominant-baseline="center" text-anchor="middle">BigQuery</text>
                    </g>
                    <g transform="translate(95,25)">
                        <rect class="node" width="80" height="30"></rect>
                        <text x="40" y="20" dominant-baseline="center" text-anchor="middle">Metadata</text>
                    </g>
                    <g transform="translate(95,60)">
                        <rect class="node" width="80" height="30"></rect>
                        <text x="40" y="20" dominant-baseline="center" text-anchor="middle">Tilganger</text>
                    </g>
                </g>
                <g>
                    <path marker-end="url(#end)" class="edge" d="M190 50 C 240 50, 200 90, 412 90"></path>
                    <g transform="translate(230, 70)">
                        <rect class="label" width="137" height="34"></rect>
                        <text dominant-baseline="text-before-edge">Dine dataprodukter</text>
                        <text y="16" dominant-baseline="text-before-edge">i din analyse</text>
                    </g>
                </g>
            </g>
        
            <g class="subgraph" transform="translate(0,250)">
                <rect width="590" height="130"></rect>
                <text x="250" dominant-baseline="text-before-edge" text-anchor="middle">Kildesystem</text>
                <g class="subgraph" transform="translate(5,20)">
                    <rect width="280" height="100"></rect>
                    <text x="140" dominant-baseline="text-before-edge" text-anchor="middle">Sky</text>
                    <g transform="translate(10, 25)">
                    <path class="node" d="M 0,9.651277473876071 a 39.30000305175781,9.651277473876071 0,0,0 78.60000610351562 0 a 39.30000305175781,9.651277473876071 0,0,0 -78.60000610351562 0 l 0,43.65127747387607 a 39.30000305175781,9.651277473876071 0,0,0 78.60000610351562 0 l 0,-43.65127747387607"></path> 
                    <text x="40" y="40" dominant-baseline="center" text-anchor="middle"><a target="_top" href="/dataprodukter/produsere/skedulering/scheduled-query/">Postgres</a></text>
                    </g>
                    <g transform="translate(100, 25)">
                        <path class="node" d="M 0,9.651277473876071 a 39.30000305175781,9.651277473876071 0,0,0 78.60000610351562 0 a 39.30000305175781,9.651277473876071 0,0,0 -78.60000610351562 0 l 0,43.65127747387607 a 39.30000305175781,9.651277473876071 0,0,0 78.60000610351562 0 l 0,-43.65127747387607"></path> 
                        <text x="40" y="40" dominant-baseline="center" text-anchor="middle">Kafka</text>
                    </g>
                    <g transform="translate(190, 25)">
                        <path class="node" d="M 0,9.651277473876071 a 39.30000305175781,9.651277473876071 0,0,0 78.60000610351562 0 a 39.30000305175781,9.651277473876071 0,0,0 -78.60000610351562 0 l 0,43.65127747387607 a 39.30000305175781,9.651277473876071 0,0,0 78.60000610351562 0 l 0,-43.65127747387607"></path> 
                        <text x="40" y="40" dominant-baseline="center" text-anchor="middle">Annet</text>
                    </g>
                </g>
                <g class="subgraph" transform="translate(290,20)">
                    <rect width="295" height="100"></rect>
                    <text x="147.5" dominant-baseline="text-before-edge" text-anchor="middle">On-prem</text>
                    <g transform="translate(10,25)">
                        <path class="node" d="M 0,9.651277473876071 a 39.30000305175781,9.651277473876071 0,0,0 78.60000610351562 0 a 39.30000305175781,9.651277473876071 0,0,0 -78.60000610351562 0 l 0,43.65127747387607 a 39.30000305175781,9.651277473876071 0,0,0 78.60000610351562 0 l 0,-43.65127747387607"></path>
                        <text x="40" y="40" dominant-baseline="center" text-anchor="middle">Oracle</text>
                    </g>
                    <g transform="translate(108,25)">
                        <path class="node" d="M 0,9.651277473876071 a 39.30000305175781,9.651277473876071 0,0,0 78.60000610351562 0 a 39.30000305175781,9.651277473876071 0,0,0 -78.60000610351562 0 l 0,43.65127747387607 a 39.30000305175781,9.651277473876071 0,0,0 78.60000610351562 0 l 0,-43.65127747387607"></path>
                        <text x="40" y="40" dominant-baseline="center" text-anchor="middle">Postgres</text>
                    </g>
                    <g transform="translate(205,25)">
                        <path class="node" d="M 0,9.651277473876071 a 39.30000305175781,9.651277473876071 0,0,0 78.60000610351562 0 a 39.30000305175781,9.651277473876071 0,0,0 -78.60000610351562 0 l 0,43.65127747387607 a 39.30000305175781,9.651277473876071 0,0,0 78.60000610351562 0 l 0,-43.65127747387607"></path>
                        <text x="40" y="40" dominant-baseline="center" text-anchor="middle">Annet</text>
                    </g>
                </g>
            </g>
        </g>
        
        <marker orient="auto" markerHeight="10" markerWidth="10" markerUnits="userSpaceOnUse" refY="5" refX="7" viewBox="0 0 10 10" id="end">
            <path style="stroke-width: 2px; stroke: gray; fill: gray" class="arrowMarkerPath" d="M 0 0 L 10 5 L 0 10 z"></path>
        </marker>
    </g>
    <g transform="translate(0, 20)">
        <path marker-end="url(#end)" class="edge" d="M180 75 C 180 150, 515 60, 515 147"></path>
        <g transform="translate(400, 80)">
            <rect class="label" height="34" width="175"></rect>
            <text dominant-baseline="text-before-edge">Andres dataprodukter</text>
            <text y="16" dominant-baseline="text-before-edge">kan brukes i din analyse</text>
        </g>
    </g>
    <g transform="translate(0, 20)">
        <path marker-end="url(#end)" class="edge" d="M180 75 C 180 150, 100 100, 100 197"></path>
        <g transform="translate(35, 140)">
            <rect class="label" height="34" width="155"></rect>
            <text dominant-baseline="text-before-edge">Andres dataprodukter</text>
            <text y="16" dominant-baseline="text-before-edge">kan brukes i dine</text> 
        </g>
    </g>
</svg>
