<svg id="Layer_1" data-name="Layer 1" xmlns="http://www.w3.org/2000/svg" viewBox="0 0 439 105"><defs><style>.cls-1{fill:#e40303;}.cls-2{fill:#ff8c00;}.cls-3{fill:#ffed00;}.cls-4{fill:#008026;}.cls-5{fill:#004dff;}.cls-6{fill:#750787;}</style></defs><polygon class="cls-1" points="423.86 17.53 362.03 17.53 365.84 0.03 427.68 0.03 423.86 17.53"/><polygon class="cls-2" points="420.36 35.03 358.53 35.03 362.34 17.53 424.18 17.53 420.36 35.03"/><polygon class="cls-3" points="416.86 52.53 355.03 52.53 358.84 35.03 420.68 35.03 416.86 52.53"/><polygon class="cls-4" points="413.36 70.03 351.53 70.03 355.34 52.53 417.18 52.53 413.36 70.03"/><polygon class="cls-5" points="409.86 87.53 348.03 87.53 351.84 70.03 413.68 70.03 409.86 87.53"/><polygon class="cls-6" points="406.36 105.03 344.53 105.03 348.34 87.53 410.18 87.53 406.36 105.03"/><polygon points="426.85 0.03 439.01 0.03 414.79 105.03 402.63 105.03 426.85 0.03"/><polygon points="419.85 0 432.01 0 407.79 105 395.63 105 419.85 0"/><polygon points="365.85 0.03 378.01 0.03 353.79 105.03 341.63 105.03 365.85 0.03"/><polygon points="370.85 0 383.01 0 358.79 105 346.63 105 370.85 0"/><polygon points="23.85 0.03 36.02 0.03 11.79 105.03 -0.37 105.03 23.85 0.03"/><polygon points="29.85 0 42.02 0 17.79 105 5.63 105 29.85 0"/><path d="M73.86,87.5V35.21H86.51l1.06,6.64H88a41.69,41.69,0,0,1,7.38-5.53,18,18,0,0,1,9.38-2.38q8.53,0,12.38,5.59T121,55V87.5H105.49V57q0-5.69-1.53-7.8a5.64,5.64,0,0,0-4.9-2.11A9.32,9.32,0,0,0,94,48.44a29.54,29.54,0,0,0-4.64,3.74V87.5Z"/><path d="M147.34,88.76a16.64,16.64,0,0,1-6.49-1.21,14,14,0,0,1-4.9-3.37,15.55,15.55,0,0,1-3.11-5A17,17,0,0,1,131.73,73a14.64,14.64,0,0,1,7-12.86q7-4.64,22.46-6.22a8.89,8.89,0,0,0-2.06-5.54q-1.84-2.05-6.17-2a18.7,18.7,0,0,0-6.69,1.26A50.2,50.2,0,0,0,139.11,51L133.53,40.8a54.88,54.88,0,0,1,10.59-5,36.13,36.13,0,0,1,11.75-1.9q10.13,0,15.45,5.75t5.32,17.87V87.5H164l-1.05-5.38h-.42a33.46,33.46,0,0,1-7.07,4.8A17.86,17.86,0,0,1,147.34,88.76Zm5.27-12a8.48,8.48,0,0,0,4.53-1.16,22.53,22.53,0,0,0,4-3.26V63.15q-8.24,1.16-11.39,3.37t-3.16,5.27a4.34,4.34,0,0,0,1.63,3.74A7.18,7.18,0,0,0,152.61,76.74Z"/><path d="M208.37,88.76a20,20,0,0,1-8.8-1.9,18.84,18.84,0,0,1-6.75-5.43,25.58,25.58,0,0,1-4.32-8.59A39.66,39.66,0,0,1,187,61.35a33.45,33.45,0,0,1,1.85-11.49,27.57,27.57,0,0,1,4.85-8.59,21.16,21.16,0,0,1,7-5.43,18.57,18.57,0,0,1,8.07-1.9A15.8,15.8,0,0,1,216,35.42a26,26,0,0,1,5.59,4l-.63-8V13.6h15.49V87.5H223.76l-1-5.17h-.42a24.67,24.67,0,0,1-6.43,4.59A16.59,16.59,0,0,1,208.37,88.76Zm4-12.65a9.93,9.93,0,0,0,4.58-1,11.74,11.74,0,0,0,4-3.69V50a12.31,12.31,0,0,0-4.33-2.64,13.62,13.62,0,0,0-4.32-.74q-3.69,0-6.53,3.54t-2.85,11q0,7.8,2.48,11.39A8,8,0,0,0,212.38,76.11Z"/><path d="M263.29,88.76a16.59,16.59,0,0,1-6.48-1.21,13.88,13.88,0,0,1-4.9-3.37,15.55,15.55,0,0,1-3.11-5A17,17,0,0,1,247.69,73a14.64,14.64,0,0,1,7-12.86q7-4.64,22.45-6.22a8.82,8.82,0,0,0-2.05-5.54q-1.85-2.05-6.17-2a18.7,18.7,0,0,0-6.69,1.26A49.68,49.68,0,0,0,255.07,51L249.48,40.8a55.24,55.24,0,0,1,10.6-5,36.09,36.09,0,0,1,11.75-1.9q10.13,0,15.45,5.75t5.32,17.87V87.5H280l-1.05-5.38h-.43a33.4,33.4,0,0,1-7.06,4.8A17.88,17.88,0,0,1,263.29,88.76Zm5.27-12a8.49,8.49,0,0,0,4.54-1.16,22.15,22.15,0,0,0,4-3.26V63.15q-8.22,1.16-11.38,3.37t-3.16,5.27a4.34,4.34,0,0,0,1.63,3.74A7.17,7.17,0,0,0,268.56,76.74Z"/></svg>